<?xml version='1.0' encoding='UTF-8' standalone='no'?>
<!-- Created with Fritzing (http://www.fritzing.org/) -->
<svg xmlns="http://www.w3.org/2000/svg"  baseProfile="tiny" xmlns:svg="http://www.w3.org/2000/svg" x="0in" height="2.01686in" version="1.2" viewBox="0 0 84.4081 145.214" y="0in" width="1.17233in">
 <g transform="matrix(-1, 0, 0, 1, 84.4081, 0)">
  <g partID="57470">
   <g  id="board">
    <rect  stroke-width="0.5" id="boardoutline" x="0.288" stroke="black" height="144.638" fill-opacity="0.5" fill="none" y="0.288" width="83.8321"/>
   </g>
  </g>
  <g partID="854797000">
   <g transform="translate(2.88,2.88)">
    <g  id="groundplane1">
     <polygon  stroke-width="0" points="9.504,0,9.504,1.872,9.648,1.872,9.648,4.176,9.504,4.176,9.504,4.896,9.36,4.896,9.36,5.328,9.216,5.328,9.216,5.76,9.072,5.76,9.072,6.048,8.928,6.048,8.928,6.336,8.784,6.336,8.784,6.48,8.64,6.48,8.64,6.768,8.496,6.768,8.496,6.912,8.352,6.912,8.352,7.2,8.208,7.2,8.208,7.344,8.064,7.344,8.064,7.488,7.92,7.488,7.92,7.632,7.776,7.632,7.776,7.776,7.632,7.776,7.632,7.92,7.488,7.92,7.488,8.064,7.344,8.064,7.344,8.208,7.2,8.208,7.2,8.352,6.912,8.352,6.912,8.496,6.768,8.496,6.768,8.64,6.48,8.64,6.48,8.784,6.336,8.784,6.336,8.928,6.048,8.928,6.048,9.072,5.76,9.072,5.76,9.216,5.328,9.216,5.328,9.36,5.04,9.36,5.04,9.504,4.464,9.504,4.464,9.648,3.312,9.648,3.312,9.792,74.592,9.792,74.592,9.648,73.584,9.648,73.584,9.504,73.008,9.504,73.008,9.36,72.576,9.36,72.576,9.216,72.288,9.216,72.288,9.072,72,9.072,72,8.928,71.712,8.928,71.712,8.784,71.424,8.784,71.424,8.64,71.28,8.64,71.28,8.496,70.992,8.496,70.992,8.352,70.848,8.352,70.848,8.208,70.704,8.208,70.704,8.064,70.56,8.064,70.56,7.92,70.272,7.92,70.272,7.776,70.128,7.776,70.128,7.488,69.984,7.488,69.984,7.344,69.84,7.344,69.84,7.2,69.696,7.2,69.696,7.056,69.552,7.056,69.552,6.768,69.408,6.768,69.408,6.624,69.264,6.624,69.264,6.336,69.12,6.336,69.12,6.048,68.976,6.048,68.976,5.76,68.832,5.76,68.832,5.472,68.688,5.472,68.688,5.04,68.544,5.04,68.544,4.464,68.4,4.464,68.4,3.6,68.256,3.6,68.256,2.592,68.4,2.592,68.4,1.584,68.544,1.584,68.544,0" stroke="none" fill="black"/>
     <polygon  stroke-width="0" points="77.04,9.36,77.04,9.504,76.464,9.504,76.464,9.648,75.312,9.648,75.312,9.792,78.624,9.792,78.624,9.36" stroke="none" fill="black"/>
     <polygon  stroke-width="0" points="0,9.504,0,9.792,2.592,9.792,2.592,9.648,1.584,9.648,1.584,9.504" stroke="none" fill="black"/>
     <polygon  stroke-width="0" points="0,9.792,0,9.936,78.624,9.936,78.624,9.792" stroke="none" fill="black"/>
     <polygon  stroke-width="0" points="0,9.792,0,9.936,78.624,9.936,78.624,9.792" stroke="none" fill="black"/>
     <polygon  stroke-width="0" points="0,9.792,0,9.936,78.624,9.936,78.624,9.792" stroke="none" fill="black"/>
     <polygon  stroke-width="0" points="0,9.936,0,12.528,72.432,12.528,72.432,12.672,73.008,12.672,73.008,12.816,73.296,12.816,73.296,12.96,73.728,12.96,73.728,13.104,73.872,13.104,73.872,13.248,74.16,13.248,74.16,13.392,74.304,13.392,74.304,13.536,74.592,13.536,74.592,13.68,74.736,13.68,74.736,13.824,74.88,13.824,74.88,13.968,75.024,13.968,75.024,14.112,75.168,14.112,75.168,14.256,75.312,14.256,75.312,14.544,75.456,14.544,75.456,14.688,75.6,14.688,75.6,14.976,75.744,14.976,75.744,15.264,75.888,15.264,75.888,15.552,76.032,15.552,76.032,15.84,76.176,15.84,76.176,16.416,76.32,16.416,76.32,18.432,76.176,18.432,76.176,19.008,76.032,19.008,76.032,19.44,75.888,19.44,75.888,19.728,75.744,19.728,75.744,20.016,75.6,20.016,75.6,20.16,75.456,20.16,75.456,21.888,75.6,21.888,75.6,22.176,75.744,22.176,75.744,22.464,75.888,22.464,75.888,22.752,76.032,22.752,76.032,23.04,76.176,23.04,76.176,23.616,76.32,23.616,76.32,25.632,76.176,25.632,76.176,26.208,76.032,26.208,76.032,26.64,75.888,26.64,75.888,26.928,75.744,26.928,75.744,27.216,75.6,27.216,75.6,27.36,75.456,27.36,75.456,29.088,75.6,29.088,75.6,29.376,75.744,29.376,75.744,29.664,75.888,29.664,75.888,29.952,76.032,29.952,76.032,30.24,76.176,30.24,76.176,30.816,76.32,30.816,76.32,32.832,76.176,32.832,76.176,33.408,76.032,33.408,76.032,33.84,75.888,33.84,75.888,34.128,75.744,34.128,75.744,34.416,75.6,34.416,75.6,34.56,75.456,34.56,75.456,36,78.624,36,78.624,9.936" stroke="none" fill="black"/>
     <polygon  stroke-width="0" points="0,12.528,0,19.728,47.232,19.728,47.232,19.872,47.808,19.872,47.808,20.016,48.096,20.016,48.096,20.16,48.528,20.16,48.528,20.304,48.672,20.304,48.672,20.448,48.96,20.448,48.96,20.592,49.104,20.592,49.104,20.736,49.392,20.736,49.392,20.88,49.536,20.88,49.536,21.024,49.68,21.024,49.68,21.168,49.824,21.168,49.824,21.312,49.968,21.312,49.968,21.456,50.112,21.456,50.112,21.744,50.256,21.744,50.256,21.888,50.4,21.888,50.4,22.176,50.544,22.176,50.544,22.464,50.688,22.464,50.688,22.752,50.832,22.752,50.832,23.04,52.272,23.04,52.272,22.896,52.416,22.896,52.416,22.608,52.56,22.608,52.56,22.32,52.704,22.32,52.704,22.032,52.848,22.032,52.848,21.888,52.992,21.888,52.992,20.304,52.848,20.304,52.848,20.016,52.704,20.016,52.704,19.872,52.56,19.872,52.56,19.584,52.416,19.584,52.416,19.152,52.272,19.152,52.272,18.72,52.128,18.72,52.128,17.856,51.984,17.856,51.984,16.992,52.128,16.992,52.128,16.128,52.272,16.128,52.272,15.696,52.416,15.696,52.416,15.408,52.56,15.408,52.56,15.12,52.704,15.12,52.704,14.832,52.848,14.832,52.848,14.688,52.992,14.688,52.992,14.4,53.136,14.4,53.136,14.256,53.28,14.256,53.28,14.112,53.424,14.112,53.424,13.968,53.568,13.968,53.568,13.824,53.712,13.824,53.712,13.68,53.856,13.68,53.856,13.536,54,13.536,54,13.392,54.288,13.392,54.288,13.248,54.432,13.248,54.432,13.104,54.72,13.104,54.72,12.96,55.008,12.96,55.008,12.816,55.44,12.816,55.44,12.672,55.872,12.672,55.872,12.528" stroke="none" fill="black"/>
     <polygon  stroke-width="0" points="58.032,12.528,58.032,12.672,58.608,12.672,58.608,12.816,58.896,12.816,58.896,12.96,59.328,12.96,59.328,13.104,59.472,13.104,59.472,13.248,59.76,13.248,59.76,13.392,59.904,13.392,59.904,13.536,60.192,13.536,60.192,13.68,60.336,13.68,60.336,13.824,60.48,13.824,60.48,13.968,60.624,13.968,60.624,14.112,60.768,14.112,60.768,14.256,60.912,14.256,60.912,14.544,61.056,14.544,61.056,14.688,61.2,14.688,61.2,14.976,61.344,14.976,61.344,15.264,61.488,15.264,61.488,15.552,61.632,15.552,61.632,15.84,61.776,15.84,61.776,16.416,61.92,16.416,61.92,18.432,61.776,18.432,61.776,19.008,61.632,19.008,61.632,19.44,61.488,19.44,61.488,19.728,61.344,19.728,61.344,20.016,61.2,20.016,61.2,20.16,61.056,20.16,61.056,21.888,61.2,21.888,61.2,22.176,61.344,22.176,61.344,22.464,61.488,22.464,61.488,22.752,61.632,22.752,61.632,23.04,61.776,23.04,61.776,23.616,61.92,23.616,61.92,25.632,61.776,25.632,61.776,26.208,61.632,26.208,61.632,26.64,61.488,26.64,61.488,26.928,61.344,26.928,61.344,27.216,61.2,27.216,61.2,27.36,61.056,27.36,61.056,28.8,67.248,28.8,67.248,27.216,67.104,27.216,67.104,27.072,66.96,27.072,66.96,26.784,66.816,26.784,66.816,26.352,66.672,26.352,66.672,25.92,66.528,25.92,66.528,25.056,66.384,25.056,66.384,24.192,66.528,24.192,66.528,23.328,66.672,23.328,66.672,22.896,66.816,22.896,66.816,22.608,66.96,22.608,66.96,22.32,67.104,22.32,67.104,22.032,67.248,22.032,67.248,21.888,67.392,21.888,67.392,20.304,67.248,20.304,67.248,20.016,67.104,20.016,67.104,19.872,66.96,19.872,66.96,19.584,66.816,19.584,66.816,19.152,66.672,19.152,66.672,18.72,66.528,18.72,66.528,17.856,66.384,17.856,66.384,16.992,66.528,16.992,66.528,16.128,66.672,16.128,66.672,15.696,66.816,15.696,66.816,15.408,66.96,15.408,66.96,15.12,67.104,15.12,67.104,14.832,67.248,14.832,67.248,14.688,67.392,14.688,67.392,14.4,67.536,14.4,67.536,14.256,67.68,14.256,67.68,14.112,67.824,14.112,67.824,13.968,67.968,13.968,67.968,13.824,68.112,13.824,68.112,13.68,68.256,13.68,68.256,13.536,68.4,13.536,68.4,13.392,68.688,13.392,68.688,13.248,68.832,13.248,68.832,13.104,69.12,13.104,69.12,12.96,69.408,12.96,69.408,12.816,69.84,12.816,69.84,12.672,70.272,12.672,70.272,12.528" stroke="none" fill="black"/>
     <polygon  stroke-width="0" points="0,19.728,0,44.064,6.192,44.064,6.192,43.92,5.328,43.92,5.328,43.776,4.896,43.776,4.896,43.632,4.464,43.632,4.464,43.488,4.32,43.488,4.32,43.344,4.032,43.344,4.032,43.2,3.744,43.2,3.744,43.056,3.6,43.056,3.6,42.912,3.456,42.912,3.456,42.768,3.168,42.768,3.168,42.624,3.024,42.624,3.024,42.48,2.88,42.48,2.88,42.192,2.736,42.192,2.736,42.048,2.592,42.048,2.592,41.904,2.448,41.904,2.448,41.616,2.304,41.616,2.304,41.472,2.16,41.472,2.16,41.184,2.016,41.184,2.016,40.752,1.872,40.752,1.872,40.32,1.728,40.32,1.728,39.6,1.584,39.6,1.584,38.592,1.728,38.592,1.728,37.728,1.872,37.728,1.872,37.296,2.016,37.296,2.016,37.008,2.16,37.008,2.16,36.72,2.304,36.72,2.304,36.432,2.448,36.432,2.448,36.288,2.592,36.288,2.592,34.704,2.448,34.704,2.448,34.416,2.304,34.416,2.304,34.272,2.16,34.272,2.16,33.984,2.016,33.984,2.016,33.552,1.872,33.552,1.872,33.12,1.728,33.12,1.728,32.4,1.584,32.4,1.584,31.392,1.728,31.392,1.728,30.528,1.872,30.528,1.872,30.096,2.016,30.096,2.016,29.808,2.16,29.808,2.16,29.52,2.304,29.52,2.304,29.232,2.448,29.232,2.448,29.088,2.592,29.088,2.592,27.504,2.448,27.504,2.448,27.216,2.304,27.216,2.304,27.072,2.16,27.072,2.16,26.784,2.016,26.784,2.016,26.352,1.872,26.352,1.872,25.92,1.728,25.92,1.728,25.2,1.584,25.2,1.584,24.192,1.728,24.192,1.728,23.328,1.872,23.328,1.872,22.896,2.016,22.896,2.016,22.608,2.16,22.608,2.16,22.32,2.304,22.32,2.304,22.032,2.448,22.032,2.448,21.888,2.592,21.888,2.592,21.6,2.736,21.6,2.736,21.456,2.88,21.456,2.88,21.312,3.024,21.312,3.024,21.168,3.168,21.168,3.168,21.024,3.312,21.024,3.312,20.88,3.456,20.88,3.456,20.736,3.6,20.736,3.6,20.592,3.888,20.592,3.888,20.448,4.032,20.448,4.032,20.304,4.32,20.304,4.32,20.16,4.608,20.16,4.608,20.016,5.04,20.016,5.04,19.872,5.472,19.872,5.472,19.728" stroke="none" fill="black"/>
     <polygon  stroke-width="0" points="7.632,19.728,7.632,19.872,8.208,19.872,8.208,20.016,8.496,20.016,8.496,20.16,8.928,20.16,8.928,20.304,9.072,20.304,9.072,20.448,9.36,20.448,9.36,20.592,9.504,20.592,9.504,20.736,9.792,20.736,9.792,20.88,9.936,20.88,9.936,21.024,10.08,21.024,10.08,21.168,10.224,21.168,10.224,21.312,10.368,21.312,10.368,21.456,10.512,21.456,10.512,21.744,10.656,21.744,10.656,21.888,10.8,21.888,10.8,22.176,10.944,22.176,10.944,22.464,11.088,22.464,11.088,22.752,11.232,22.752,11.232,23.04,11.376,23.04,11.376,23.616,11.52,23.616,11.52,25.632,11.376,25.632,11.376,26.208,11.232,26.208,11.232,26.64,11.088,26.64,11.088,26.928,10.944,26.928,10.944,27.216,10.8,27.216,10.8,27.36,10.656,27.36,10.656,28.8,13.824,28.8,13.824,28.944,14.688,28.944,14.688,29.088,14.976,29.088,14.976,29.232,15.264,29.232,15.264,29.376,16.704,29.376,16.704,29.232,16.848,29.232,16.848,29.088,16.992,29.088,16.992,27.504,16.848,27.504,16.848,27.216,16.704,27.216,16.704,27.072,16.56,27.072,16.56,26.784,16.416,26.784,16.416,26.352,16.272,26.352,16.272,25.92,16.128,25.92,16.128,25.2,15.984,25.2,15.984,24.192,16.128,24.192,16.128,23.328,16.272,23.328,16.272,22.896,16.416,22.896,16.416,22.608,16.56,22.608,16.56,22.32,16.704,22.32,16.704,22.032,16.848,22.032,16.848,21.888,16.992,21.888,16.992,21.6,17.136,21.6,17.136,21.456,17.28,21.456,17.28,21.312,17.424,21.312,17.424,21.168,17.568,21.168,17.568,21.024,17.712,21.024,17.712,20.88,17.856,20.88,17.856,20.736,18,20.736,18,20.592,18.288,20.592,18.288,20.448,18.432,20.448,18.432,20.304,18.72,20.304,18.72,20.16,19.008,20.16,19.008,20.016,19.44,20.016,19.44,19.872,19.872,19.872,19.872,19.728" stroke="none" fill="black"/>
     <polygon  stroke-width="0" points="22.032,19.728,22.032,19.872,22.608,19.872,22.608,20.016,22.896,20.016,22.896,20.16,23.328,20.16,23.328,20.304,23.472,20.304,23.472,20.448,23.76,20.448,23.76,20.592,23.904,20.592,23.904,20.736,24.192,20.736,24.192,20.88,24.336,20.88,24.336,21.024,24.48,21.024,24.48,21.168,24.624,21.168,24.624,21.312,24.768,21.312,24.768,21.456,24.912,21.456,24.912,21.744,25.056,21.744,25.056,21.888,25.2,21.888,25.2,22.176,25.344,22.176,25.344,22.464,25.488,22.464,25.488,22.752,25.632,22.752,25.632,23.04,25.776,23.04,25.776,23.616,25.92,23.616,25.92,25.632,25.776,25.632,25.776,26.208,25.632,26.208,25.632,26.64,25.488,26.64,25.488,26.928,25.344,26.928,25.344,27.216,25.2,27.216,25.2,27.36,25.056,27.36,25.056,28.8,28.656,28.8,28.656,28.944,29.088,28.944,29.088,29.088,29.52,29.088,29.52,29.232,31.248,29.232,31.248,29.088,31.392,29.088,31.392,27.504,31.248,27.504,31.248,27.216,31.104,27.216,31.104,27.072,30.96,27.072,30.96,26.784,30.816,26.784,30.816,26.352,30.672,26.352,30.672,25.92,30.528,25.92,30.528,25.2,30.384,25.2,30.384,24.192,30.528,24.192,30.528,23.328,30.672,23.328,30.672,22.896,30.816,22.896,30.816,22.608,30.96,22.608,30.96,22.32,31.104,22.32,31.104,22.032,31.248,22.032,31.248,21.888,31.392,21.888,31.392,21.6,31.536,21.6,31.536,21.456,31.68,21.456,31.68,21.312,31.824,21.312,31.824,21.168,31.968,21.168,31.968,21.024,32.112,21.024,32.112,20.88,32.256,20.88,32.256,20.736,32.4,20.736,32.4,20.592,32.688,20.592,32.688,20.448,32.832,20.448,32.832,20.304,33.12,20.304,33.12,20.16,33.408,20.16,33.408,20.016,33.84,20.016,33.84,19.872,34.272,19.872,34.272,19.728" stroke="none" fill="black"/>
     <polygon  stroke-width="0" points="36.432,19.728,36.432,19.872,37.008,19.872,37.008,20.016,37.296,20.016,37.296,20.16,37.728,20.16,37.728,20.304,37.872,20.304,37.872,20.448,38.16,20.448,38.16,20.592,38.304,20.592,38.304,20.736,38.592,20.736,38.592,20.88,38.736,20.88,38.736,21.024,38.88,21.024,38.88,21.168,39.024,21.168,39.024,21.312,39.168,21.312,39.168,21.456,39.312,21.456,39.312,21.744,39.456,21.744,39.456,21.888,39.6,21.888,39.6,22.176,39.744,22.176,39.744,22.464,39.888,22.464,39.888,22.752,40.032,22.752,40.032,23.04,41.472,23.04,41.472,22.896,41.616,22.896,41.616,22.608,41.76,22.608,41.76,22.32,41.904,22.32,41.904,22.032,42.048,22.032,42.048,21.888,42.192,21.888,42.192,21.6,42.336,21.6,42.336,21.456,42.48,21.456,42.48,21.312,42.624,21.312,42.624,21.168,42.768,21.168,42.768,21.024,42.912,21.024,42.912,20.88,43.056,20.88,43.056,20.736,43.2,20.736,43.2,20.592,43.488,20.592,43.488,20.448,43.632,20.448,43.632,20.304,43.92,20.304,43.92,20.16,44.208,20.16,44.208,20.016,44.64,20.016,44.64,19.872,45.072,19.872,45.072,19.728" stroke="none" fill="black"/>
     <polygon  stroke-width="0" points="50.832,33.408,50.832,33.84,50.688,33.84,50.688,34.128,50.544,34.128,50.544,34.416,50.4,34.416,50.4,34.56,50.256,34.56,50.256,34.848,50.112,34.848,50.112,34.992,49.968,34.992,49.968,35.136,49.824,35.136,49.824,35.28,49.68,35.28,49.68,35.424,49.536,35.424,49.536,35.568,49.392,35.568,49.392,35.712,49.248,35.712,49.248,44.064,56.592,44.064,56.592,43.92,55.728,43.92,55.728,43.776,55.296,43.776,55.296,43.632,54.864,43.632,54.864,43.488,54.72,43.488,54.72,43.344,54.432,43.344,54.432,43.2,54.144,43.2,54.144,43.056,54,43.056,54,42.912,53.856,42.912,53.856,42.768,53.568,42.768,53.568,42.624,53.424,42.624,53.424,42.48,53.28,42.48,53.28,42.192,53.136,42.192,53.136,42.048,52.992,42.048,52.992,41.904,52.848,41.904,52.848,41.616,52.704,41.616,52.704,41.472,52.56,41.472,52.56,41.184,52.416,41.184,52.416,40.752,52.272,40.752,52.272,40.32,52.128,40.32,52.128,39.456,51.984,39.456,51.984,38.592,52.128,38.592,52.128,37.728,52.272,37.728,52.272,37.296,52.416,37.296,52.416,37.008,52.56,37.008,52.56,36.72,52.704,36.72,52.704,36.432,52.848,36.432,52.848,36.288,52.992,36.288,52.992,34.704,52.848,34.704,52.848,34.416,52.704,34.416,52.704,34.272,52.56,34.272,52.56,33.984,52.416,33.984,52.416,33.552,52.272,33.552,52.272,33.408" stroke="none" fill="black"/>
     <polygon  stroke-width="0" points="59.76,43.056,59.76,43.2,59.616,43.2,59.616,43.344,59.328,43.344,59.328,43.488,59.04,43.488,59.04,43.632,58.752,43.632,58.752,43.776,58.176,43.776,58.176,43.92,57.456,43.92,57.456,44.064,61.2,44.064,61.2,43.056" stroke="none" fill="black"/>
     <polygon  stroke-width="0" points="9.216,43.2,9.216,43.344,8.928,43.344,8.928,43.488,8.64,43.488,8.64,43.632,8.352,43.632,8.352,43.776,7.776,43.776,7.776,43.92,7.056,43.92,7.056,44.064,10.656,44.064,10.656,43.2" stroke="none" fill="black"/>
     <polygon  stroke-width="0" points="0,44.064,0,44.208,10.656,44.208,10.656,44.064" stroke="none" fill="black"/>
     <polygon  stroke-width="0" points="0,44.064,0,44.208,10.656,44.208,10.656,44.064" stroke="none" fill="black"/>
     <polygon  stroke-width="0" points="49.248,44.064,49.248,44.208,61.2,44.208,61.2,44.064" stroke="none" fill="black"/>
     <polygon  stroke-width="0" points="49.248,44.064,49.248,44.208,61.2,44.208,61.2,44.064" stroke="none" fill="black"/>
     <polygon  stroke-width="0" points="0,44.208,0,59.328,7.632,59.328,7.632,59.472,8.208,59.472,8.208,59.616,8.496,59.616,8.496,59.76,8.784,59.76,8.784,59.904,9.072,59.904,9.072,60.048,10.656,60.048,10.656,44.208" stroke="none" fill="black"/>
     <polygon  stroke-width="0" points="49.248,44.208,49.248,64.08,49.392,64.08,49.392,64.224,49.536,64.224,49.536,64.368,49.68,64.368,49.68,64.512,49.824,64.512,49.824,64.656,49.968,64.656,49.968,64.944,50.112,64.944,50.112,65.088,50.256,65.088,50.256,65.376,50.4,65.376,50.4,65.52,50.544,65.52,50.544,65.808,50.688,65.808,50.688,66.24,50.832,66.24,50.832,66.672,50.976,66.672,50.976,67.68,51.12,67.68,51.12,67.968,50.976,67.968,50.976,68.976,50.832,68.976,50.832,69.552,50.688,69.552,50.688,69.84,50.544,69.84,50.544,70.128,50.4,70.128,50.4,70.416,50.256,70.416,50.256,70.56,50.112,70.56,50.112,70.848,49.968,70.848,49.968,70.992,49.824,70.992,49.824,71.136,49.68,71.136,49.68,71.28,49.536,71.28,49.536,71.424,49.392,71.424,49.392,71.568,49.248,71.568,49.248,71.712,48.96,71.712,48.96,71.856,48.816,71.856,48.816,72,48.528,72,48.528,72.144,48.24,72.144,48.24,72.288,47.952,72.288,47.952,72.432,47.52,72.432,47.52,72.576,46.944,72.576,46.944,72.72,61.2,72.72,61.2,44.208" stroke="none" fill="black"/>
     <polygon  stroke-width="0" points="0,59.328,0,119.664,6.336,119.664,6.336,119.52,5.328,119.52,5.328,119.376,4.896,119.376,4.896,119.232,4.608,119.232,4.608,119.088,4.32,119.088,4.32,118.944,4.032,118.944,4.032,118.8,3.744,118.8,3.744,118.656,3.6,118.656,3.6,118.512,3.456,118.512,3.456,118.368,3.312,118.368,3.312,118.224,3.024,118.224,3.024,117.936,2.88,117.936,2.88,117.792,2.736,117.792,2.736,117.648,2.592,117.648,2.592,117.504,2.448,117.504,2.448,117.216,2.304,117.216,2.304,116.928,2.16,116.928,2.16,116.64,2.016,116.64,2.016,116.352,1.872,116.352,1.872,115.92,1.728,115.92,1.728,115.056,1.584,115.056,1.584,114.336,1.728,114.336,1.728,113.472,1.872,113.472,1.872,112.896,2.016,112.896,2.016,112.608,2.16,112.608,2.16,112.32,2.304,112.32,2.304,112.032,2.448,112.032,2.448,111.888,2.592,111.888,2.592,110.304,2.448,110.304,2.448,110.016,2.304,110.016,2.304,109.728,2.16,109.728,2.16,109.44,2.016,109.44,2.016,109.152,1.872,109.152,1.872,108.72,1.728,108.72,1.728,107.856,1.584,107.856,1.584,107.136,1.728,107.136,1.728,106.272,1.872,106.272,1.872,105.696,2.016,105.696,2.016,105.408,2.16,105.408,2.16,105.12,2.304,105.12,2.304,104.832,2.448,104.832,2.448,104.688,2.592,104.688,2.592,103.104,2.448,103.104,2.448,102.816,2.304,102.816,2.304,102.528,2.16,102.528,2.16,102.24,2.016,102.24,2.016,101.952,1.872,101.952,1.872,101.52,1.728,101.52,1.728,100.656,1.584,100.656,1.584,99.936,1.728,99.936,1.728,99.072,1.872,99.072,1.872,98.496,2.016,98.496,2.016,98.208,2.16,98.208,2.16,97.92,2.304,97.92,2.304,97.632,2.448,97.632,2.448,97.488,2.592,97.488,2.592,95.904,2.448,95.904,2.448,95.616,2.304,95.616,2.304,95.328,2.16,95.328,2.16,95.04,2.016,95.04,2.016,94.752,1.872,94.752,1.872,94.32,1.728,94.32,1.728,93.456,1.584,93.456,1.584,92.736,1.728,92.736,1.728,91.872,1.872,91.872,1.872,91.296,2.016,91.296,2.016,91.008,2.16,91.008,2.16,90.72,2.304,90.72,2.304,90.432,2.448,90.432,2.448,90.288,2.592,90.288,2.592,88.704,2.448,88.704,2.448,88.416,2.304,88.416,2.304,88.128,2.16,88.128,2.16,87.84,2.016,87.84,2.016,87.552,1.872,87.552,1.872,87.12,1.728,87.12,1.728,86.256,1.584,86.256,1.584,85.536,1.728,85.536,1.728,84.672,1.872,84.672,1.872,84.096,2.016,84.096,2.016,83.808,2.16,83.808,2.16,83.52,2.304,83.52,2.304,83.232,2.448,83.232,2.448,83.088,2.592,83.088,2.592,81.504,2.448,81.504,2.448,81.216,2.304,81.216,2.304,80.928,2.16,80.928,2.16,80.64,2.016,80.64,2.016,80.352,1.872,80.352,1.872,79.92,1.728,79.92,1.728,79.056,1.584,79.056,1.584,78.336,1.728,78.336,1.728,77.472,1.872,77.472,1.872,76.896,2.016,76.896,2.016,76.608,2.16,76.608,2.16,76.32,2.304,76.32,2.304,76.032,2.448,76.032,2.448,75.888,2.592,75.888,2.592,74.304,2.448,74.304,2.448,74.016,2.304,74.016,2.304,73.728,2.16,73.728,2.16,73.44,2.016,73.44,2.016,73.152,1.872,73.152,1.872,72.72,1.728,72.72,1.728,71.856,1.584,71.856,1.584,71.136,1.728,71.136,1.728,70.272,1.872,70.272,1.872,69.696,2.016,69.696,2.016,69.408,2.16,69.408,2.16,69.12,2.304,69.12,2.304,68.832,2.448,68.832,2.448,68.688,2.592,68.688,2.592,67.104,2.448,67.104,2.448,66.816,2.304,66.816,2.304,66.528,2.16,66.528,2.16,66.24,2.016,66.24,2.016,65.952,1.872,65.952,1.872,65.52,1.728,65.52,1.728,64.656,1.584,64.656,1.584,63.936,1.728,63.936,1.728,63.072,1.872,63.072,1.872,62.496,2.016,62.496,2.016,62.208,2.16,62.208,2.16,61.92,2.304,61.92,2.304,61.632,2.448,61.632,2.448,61.488,2.592,61.488,2.592,61.2,2.736,61.2,2.736,61.056,2.88,61.056,2.88,60.912,3.024,60.912,3.024,60.768,3.168,60.768,3.168,60.624,3.312,60.624,3.312,60.48,3.456,60.48,3.456,60.336,3.6,60.336,3.6,60.192,3.888,60.192,3.888,60.048,4.032,60.048,4.032,59.904,4.32,59.904,4.32,59.76,4.608,59.76,4.608,59.616,5.04,59.616,5.04,59.472,5.616,59.472,5.616,59.328" stroke="none" fill="black"/>
     <polygon  stroke-width="0" points="40.032,68.976,40.032,69.552,39.888,69.552,39.888,69.84,39.744,69.84,39.744,70.128,39.6,70.128,39.6,70.416,39.456,70.416,39.456,70.56,39.312,70.56,39.312,70.848,39.168,70.848,39.168,70.992,39.024,70.992,39.024,71.136,38.88,71.136,38.88,71.28,38.736,71.28,38.736,71.424,38.592,71.424,38.592,71.568,38.448,71.568,38.448,71.712,38.16,71.712,38.16,71.856,38.016,71.856,38.016,72,37.728,72,37.728,72.144,37.44,72.144,37.44,72.288,37.152,72.288,37.152,72.432,36.72,72.432,36.72,72.576,36.144,72.576,36.144,72.72,45.504,72.72,45.504,72.576,44.784,72.576,44.784,72.432,44.352,72.432,44.352,72.288,44.064,72.288,44.064,72.144,43.776,72.144,43.776,72,43.632,72,43.632,71.856,43.344,71.856,43.344,71.712,43.2,71.712,43.2,71.568,43.056,71.568,43.056,71.424,42.768,71.424,42.768,71.28,42.624,71.28,42.624,70.992,42.48,70.992,42.48,70.848,42.336,70.848,42.336,70.704,42.192,70.704,42.192,70.416,42.048,70.416,42.048,70.272,41.904,70.272,41.904,69.984,41.76,69.984,41.76,69.696,41.616,69.696,41.616,69.264,41.472,69.264,41.472,68.976" stroke="none" fill="black"/>
     <polygon  stroke-width="0" points="31.104,71.712,31.104,72.72,34.704,72.72,34.704,72.576,33.984,72.576,33.984,72.432,33.552,72.432,33.552,72.288,33.264,72.288,33.264,72.144,32.976,72.144,32.976,72,32.832,72,32.832,71.856,32.544,71.856,32.544,71.712" stroke="none" fill="black"/>
     <polygon  stroke-width="0" points="31.104,72.72,31.104,72.864,61.2,72.864,61.2,72.72" stroke="none" fill="black"/>
     <polygon  stroke-width="0" points="31.104,72.72,31.104,72.864,61.2,72.864,61.2,72.72" stroke="none" fill="black"/>
     <polygon  stroke-width="0" points="31.104,72.72,31.104,72.864,61.2,72.864,61.2,72.72" stroke="none" fill="black"/>
     <polygon  stroke-width="0" points="31.104,72.864,31.104,91.728,46.512,91.728,46.512,91.872,47.376,91.872,47.376,92.016,47.808,92.016,47.808,92.16,48.24,92.16,48.24,92.304,48.528,92.304,48.528,92.448,48.672,92.448,48.672,92.592,48.96,92.592,48.96,92.736,49.104,92.736,49.104,92.88,49.392,92.88,49.392,93.024,49.536,93.024,49.536,93.168,49.68,93.168,49.68,93.312,49.824,93.312,49.824,93.456,49.968,93.456,49.968,93.744,50.112,93.744,50.112,93.888,50.256,93.888,50.256,94.176,50.4,94.176,50.4,94.32,50.544,94.32,50.544,94.608,50.688,94.608,50.688,95.04,50.832,95.04,50.832,95.472,50.976,95.472,50.976,96.48,51.12,96.48,51.12,96.768,50.976,96.768,50.976,97.776,50.832,97.776,50.832,98.352,50.688,98.352,50.688,98.64,50.544,98.64,50.544,98.928,50.4,98.928,50.4,99.216,50.256,99.216,50.256,99.36,50.112,99.36,50.112,99.648,49.968,99.648,49.968,99.792,49.824,99.792,49.824,99.936,49.68,99.936,49.68,100.08,49.536,100.08,49.536,100.224,49.392,100.224,49.392,100.368,49.248,100.368,49.248,100.512,48.96,100.512,48.96,100.656,48.816,100.656,48.816,100.8,48.528,100.8,48.528,100.944,48.24,100.944,48.24,101.088,47.952,101.088,47.952,101.232,47.52,101.232,47.52,101.376,46.944,101.376,46.944,101.52,66.528,101.52,66.528,100.656,66.384,100.656,66.384,99.936,66.528,99.936,66.528,99.072,66.672,99.072,66.672,98.496,66.816,98.496,66.816,98.208,66.96,98.208,66.96,97.92,67.104,97.92,67.104,97.632,67.248,97.632,67.248,97.488,67.392,97.488,67.392,95.904,67.248,95.904,67.248,95.616,67.104,95.616,67.104,95.328,66.96,95.328,66.96,95.04,66.816,95.04,66.816,94.752,66.672,94.752,66.672,94.32,66.528,94.32,66.528,93.456,66.384,93.456,66.384,92.736,66.528,92.736,66.528,91.872,66.672,91.872,66.672,91.296,66.816,91.296,66.816,91.008,66.96,91.008,66.96,90.72,67.104,90.72,67.104,90.432,67.248,90.432,67.248,90.288,67.392,90.288,67.392,88.704,67.248,88.704,67.248,88.416,67.104,88.416,67.104,88.128,66.96,88.128,66.96,87.84,66.816,87.84,66.816,87.552,66.672,87.552,66.672,87.12,66.528,87.12,66.528,86.256,66.384,86.256,66.384,85.536,66.528,85.536,66.528,84.672,66.672,84.672,66.672,84.096,66.816,84.096,66.816,83.808,66.96,83.808,66.96,83.52,67.104,83.52,67.104,83.232,67.248,83.232,67.248,83.088,67.392,83.088,67.392,81.648,64.08,81.648,64.08,81.504,63.36,81.504,63.36,81.36,62.928,81.36,62.928,81.216,62.64,81.216,62.64,81.072,62.496,81.072,62.496,80.928,62.208,80.928,62.208,80.784,62.064,80.784,62.064,80.64,61.92,80.64,61.92,80.496,61.776,80.496,61.776,80.208,61.632,80.208,61.632,80.064,61.488,80.064,61.488,79.776,61.344,79.776,61.344,79.2,61.2,79.2,61.2,72.864" stroke="none" fill="black"/>
     <polygon  stroke-width="0" points="31.104,91.728,31.104,92.736,32.688,92.736,32.688,92.592,32.832,92.592,32.832,92.448,33.12,92.448,33.12,92.304,33.408,92.304,33.408,92.16,33.696,92.16,33.696,92.016,34.128,92.016,34.128,91.872,35.136,91.872,35.136,91.728" stroke="none" fill="black"/>
     <polygon  stroke-width="0" points="35.712,91.728,35.712,91.872,36.576,91.872,36.576,92.016,37.008,92.016,37.008,92.16,37.44,92.16,37.44,92.304,37.728,92.304,37.728,92.448,37.872,92.448,37.872,92.592,38.16,92.592,38.16,92.736,38.304,92.736,38.304,92.88,38.592,92.88,38.592,93.024,38.736,93.024,38.736,93.168,38.88,93.168,38.88,93.312,39.024,93.312,39.024,93.456,39.168,93.456,39.168,93.6,42.48,93.6,42.48,93.456,42.624,93.456,42.624,93.312,42.768,93.312,42.768,93.168,42.912,93.168,42.912,93.024,43.056,93.024,43.056,92.88,43.2,92.88,43.2,92.736,43.488,92.736,43.488,92.592,43.632,92.592,43.632,92.448,43.92,92.448,43.92,92.304,44.208,92.304,44.208,92.16,44.496,92.16,44.496,92.016,44.928,92.016,44.928,91.872,45.936,91.872,45.936,91.728" stroke="none" fill="black"/>
     <polygon  stroke-width="0" points="39.168,99.648,39.168,99.792,39.024,99.792,39.024,99.936,38.88,99.936,38.88,100.08,38.736,100.08,38.736,100.224,38.592,100.224,38.592,100.368,38.448,100.368,38.448,101.52,45.504,101.52,45.504,101.376,44.784,101.376,44.784,101.232,44.352,101.232,44.352,101.088,44.064,101.088,44.064,100.944,43.776,100.944,43.776,100.8,43.632,100.8,43.632,100.656,43.344,100.656,43.344,100.512,43.2,100.512,43.2,100.368,43.056,100.368,43.056,100.224,42.768,100.224,42.768,100.08,42.624,100.08,42.624,99.792,42.48,99.792,42.48,99.648" stroke="none" fill="black"/>
     <polygon  stroke-width="0" points="38.448,101.52,38.448,101.664,66.672,101.664,66.672,101.52" stroke="none" fill="black"/>
     <polygon  stroke-width="0" points="38.448,101.52,38.448,101.664,66.672,101.664,66.672,101.52" stroke="none" fill="black"/>
     <polygon  stroke-width="0" points="38.448,101.664,38.448,115.344,38.304,115.344,38.304,115.776,38.16,115.776,38.16,116.064,38.016,116.064,38.016,116.352,37.872,116.352,37.872,116.496,37.728,116.496,37.728,116.64,37.584,116.64,37.584,116.784,37.44,116.784,37.44,116.928,37.296,116.928,37.296,117.072,37.152,117.072,37.152,117.216,36.864,117.216,36.864,117.36,36.576,117.36,36.576,117.504,36.144,117.504,36.144,117.648,10.512,117.648,10.512,117.792,10.368,117.792,10.368,117.936,10.224,117.936,10.224,118.08,10.08,118.08,10.08,118.224,9.936,118.224,9.936,118.368,9.792,118.368,9.792,118.512,9.648,118.512,9.648,118.656,9.36,118.656,9.36,118.8,9.216,118.8,9.216,118.944,8.928,118.944,8.928,119.088,8.64,119.088,8.64,119.232,8.208,119.232,8.208,119.376,7.776,119.376,7.776,119.52,6.768,119.52,6.768,119.664,71.136,119.664,71.136,119.52,70.128,119.52,70.128,119.376,69.696,119.376,69.696,119.232,69.408,119.232,69.408,119.088,69.12,119.088,69.12,118.944,68.832,118.944,68.832,118.8,68.544,118.8,68.544,118.656,68.4,118.656,68.4,118.512,68.256,118.512,68.256,118.368,68.112,118.368,68.112,118.224,67.824,118.224,67.824,117.936,67.68,117.936,67.68,117.792,67.536,117.792,67.536,117.648,67.392,117.648,67.392,117.504,67.248,117.504,67.248,117.216,67.104,117.216,67.104,116.928,66.96,116.928,66.96,116.64,66.816,116.64,66.816,116.352,66.672,116.352,66.672,115.92,66.528,115.92,66.528,115.056,66.384,115.056,66.384,114.336,66.528,114.336,66.528,113.472,66.672,113.472,66.672,112.896,66.816,112.896,66.816,112.608,66.96,112.608,66.96,112.32,67.104,112.32,67.104,112.032,67.248,112.032,67.248,111.888,67.392,111.888,67.392,110.304,67.248,110.304,67.248,110.016,67.104,110.016,67.104,109.728,66.96,109.728,66.96,109.44,66.816,109.44,66.816,109.152,66.672,109.152,66.672,108.72,66.528,108.72,66.528,107.856,66.384,107.856,66.384,107.136,66.528,107.136,66.528,106.272,66.672,106.272,66.672,105.696,66.816,105.696,66.816,105.408,66.96,105.408,66.96,105.12,67.104,105.12,67.104,104.832,67.248,104.832,67.248,104.688,67.392,104.688,67.392,103.104,67.248,103.104,67.248,102.816,67.104,102.816,67.104,102.528,66.96,102.528,66.96,102.24,66.816,102.24,66.816,101.952,66.672,101.952,66.672,101.664" stroke="none" fill="black"/>
     <polygon  stroke-width="0" points="75.312,117.648,75.312,117.792,75.168,117.792,75.168,117.936,75.024,117.936,75.024,118.08,74.88,118.08,74.88,118.224,74.736,118.224,74.736,118.368,74.592,118.368,74.592,118.512,74.448,118.512,74.448,118.656,74.16,118.656,74.16,118.8,74.016,118.8,74.016,118.944,73.728,118.944,73.728,119.088,73.44,119.088,73.44,119.232,73.008,119.232,73.008,119.376,72.576,119.376,72.576,119.52,71.568,119.52,71.568,119.664,78.624,119.664,78.624,117.648" stroke="none" fill="black"/>
     <polygon  stroke-width="0" points="0,119.664,0,119.808,78.624,119.808,78.624,119.664" stroke="none" fill="black"/>
     <polygon  stroke-width="0" points="0,119.664,0,119.808,78.624,119.808,78.624,119.664" stroke="none" fill="black"/>
     <polygon  stroke-width="0" points="0,119.664,0,119.808,78.624,119.808,78.624,119.664" stroke="none" fill="black"/>
     <polygon  stroke-width="0" points="0,119.808,0,129.6,76.176,129.6,76.176,129.744,76.752,129.744,76.752,129.888,78.624,129.888,78.624,119.808" stroke="none" fill="black"/>
     <polygon  stroke-width="0" points="0,129.6,0,129.744,1.728,129.744,1.728,129.6" stroke="none" fill="black"/>
     <polygon  stroke-width="0" points="4.176,129.6,4.176,129.744,4.752,129.744,4.752,129.888,5.328,129.888,5.328,130.032,5.616,130.032,5.616,130.176,5.904,130.176,5.904,130.32,6.192,130.32,6.192,130.464,6.48,130.464,6.48,130.608,6.768,130.608,6.768,130.752,6.912,130.752,6.912,130.896,7.056,130.896,7.056,131.04,7.344,131.04,7.344,131.184,7.488,131.184,7.488,131.328,7.632,131.328,7.632,131.472,7.776,131.472,7.776,131.616,7.92,131.616,7.92,131.76,8.064,131.76,8.064,131.904,8.208,131.904,8.208,132.192,8.352,132.192,8.352,132.336,8.496,132.336,8.496,132.624,8.64,132.624,8.64,132.768,8.784,132.768,8.784,133.056,8.928,133.056,8.928,133.344,9.072,133.344,9.072,133.632,9.216,133.632,9.216,133.92,9.36,133.92,9.36,134.496,9.504,134.496,9.504,135.072,9.648,135.072,9.648,137.376,9.504,137.376,9.504,139.392,68.544,139.392,68.544,137.664,68.4,137.664,68.4,136.656,68.256,136.656,68.256,135.792,68.4,135.792,68.4,134.784,68.544,134.784,68.544,134.208,68.688,134.208,68.688,133.776,68.832,133.776,68.832,133.488,68.976,133.488,68.976,133.2,69.12,133.2,69.12,132.912,69.264,132.912,69.264,132.624,69.408,132.624,69.408,132.48,69.552,132.48,69.552,132.336,69.696,132.336,69.696,132.048,69.84,132.048,69.84,131.904,69.984,131.904,69.984,131.76,70.128,131.76,70.128,131.616,70.272,131.616,70.272,131.472,70.416,131.472,70.416,131.328,70.56,131.328,70.56,131.184,70.704,131.184,70.704,131.04,70.848,131.04,70.848,130.896,71.136,130.896,71.136,130.752,71.28,130.752,71.28,130.608,71.568,130.608,71.568,130.464,71.712,130.464,71.712,130.32,72,130.32,72,130.176,72.288,130.176,72.288,130.032,72.72,130.032,72.72,129.888,73.152,129.888,73.152,129.744,73.728,129.744,73.728,129.6" stroke="none" fill="black"/>
     <g  id="connector0pad">
      <circle  stroke-width="0" stroke="none" r="2.7" fill="black" cx="14.1411" cy="4.1535"/>
     </g>
    </g>
   </g>
  </g>
  <g partID="854797010">
   <g transform="translate(42.336,29.088)">
    <g  id="groundplane1">
     <g  id="connector0pad">
      <polygon  stroke-width="0" points="0.576,0,0.576,0.432,0.432,0.432,0.432,0.72,0.288,0.72,0.288,1.008,0.144,1.008,0.144,1.152,0,1.152,0,2.88,0.144,2.88,0.144,3.168,0.288,3.168,0.288,3.456,0.432,3.456,0.432,3.744,0.576,3.744,0.576,4.032,2.016,4.032,2.016,3.888,2.16,3.888,2.16,3.6,2.304,3.6,2.304,3.312,2.448,3.312,2.448,3.024,2.592,3.024,2.592,2.88,2.736,2.88,2.736,1.296,2.592,1.296,2.592,1.008,2.448,1.008,2.448,0.864,2.304,0.864,2.304,0.576,2.16,0.576,2.16,0.144,2.016,0.144,2.016,0" stroke="none" fill="black"/>
     </g>
    </g>
   </g>
  </g>
  <g partID="854797020">
   <g transform="translate(53.136,29.088)">
    <g  id="groundplane1">
     <g  id="connector0pad">
      <polygon  stroke-width="0" points="0.576,0,0.576,0.432,0.432,0.432,0.432,0.72,0.288,0.72,0.288,1.008,0.144,1.008,0.144,1.152,0,1.152,0,2.88,0.144,2.88,0.144,3.168,0.288,3.168,0.288,3.456,0.432,3.456,0.432,3.744,0.576,3.744,0.576,4.032,2.016,4.032,2.016,3.888,2.16,3.888,2.16,3.6,2.304,3.6,2.304,3.312,2.448,3.312,2.448,3.024,2.592,3.024,2.592,2.88,2.736,2.88,2.736,1.296,2.592,1.296,2.592,1.008,2.448,1.008,2.448,0.864,2.304,0.864,2.304,0.576,2.16,0.576,2.16,0.144,2.016,0.144,2.016,0" stroke="none" fill="black"/>
     </g>
    </g>
   </g>
  </g>
  <g partID="854797030">
   <g transform="translate(41.328,36.288)">
    <g  id="groundplane1">
     <g  id="connector0pad">
      <polygon  stroke-width="0" points="1.584,0,1.584,0.432,1.44,0.432,1.44,0.72,1.296,0.72,1.296,1.008,1.152,1.008,1.152,1.152,1.008,1.152,1.008,1.44,0.864,1.44,0.864,1.584,0.72,1.584,0.72,1.728,0.576,1.728,0.576,1.872,0.432,1.872,0.432,2.016,0.288,2.016,0.288,2.16,0.144,2.16,0.144,2.304,0,2.304,0,30.672,0.144,30.672,0.144,30.816,0.288,30.816,0.288,30.96,0.432,30.96,0.432,31.104,0.576,31.104,0.576,31.248,0.72,31.248,0.72,31.536,0.864,31.536,0.864,31.68,1.008,31.68,1.008,31.968,1.152,31.968,1.152,32.112,1.296,32.112,1.296,32.4,1.44,32.4,1.44,32.832,1.584,32.832,1.584,33.264,3.024,33.264,3.024,32.976,3.168,32.976,3.168,32.688,3.312,32.688,3.312,32.256,3.456,32.256,3.456,32.112,3.6,32.112,3.6,31.824,3.744,31.824,3.744,31.536,3.888,31.536,3.888,31.392,4.032,31.392,4.032,31.248,4.176,31.248,4.176,31.104,4.32,31.104,4.32,30.96,4.464,30.96,4.464,30.816,4.608,30.816,4.608,30.672,4.752,30.672,4.752,2.304,4.608,2.304,4.608,2.16,4.32,2.16,4.32,2.016,4.176,2.016,4.176,1.872,4.032,1.872,4.032,1.584,3.888,1.584,3.888,1.44,3.744,1.44,3.744,1.296,3.6,1.296,3.6,1.008,3.456,1.008,3.456,0.864,3.312,0.864,3.312,0.576,3.168,0.576,3.168,0.144,3.024,0.144,3.024,0" stroke="none" fill="black"/>
     </g>
    </g>
   </g>
  </g>
  <g partID="854797040">
   <g transform="translate(70.128,46.08)">
    <g  id="groundplane1">
     <polygon  stroke-width="0" points="0,0,0,0.864,3.744,0.864,3.744,0.72,2.88,0.72,2.88,0.576,2.448,0.576,2.448,0.432,2.016,0.432,2.016,0.288,1.872,0.288,1.872,0.144,1.584,0.144,1.584,0" stroke="none" fill="black"/>
     <polygon  stroke-width="0" points="6.768,0,6.768,0.144,6.48,0.144,6.48,0.288,6.192,0.288,6.192,0.432,5.904,0.432,5.904,0.576,5.328,0.576,5.328,0.72,4.608,0.72,4.608,0.864,8.208,0.864,8.208,0" stroke="none" fill="black"/>
     <polygon  stroke-width="0" points="0,0.864,0,1.008,8.208,1.008,8.208,0.864" stroke="none" fill="black"/>
     <polygon  stroke-width="0" points="0,0.864,0,1.008,8.208,1.008,8.208,0.864" stroke="none" fill="black"/>
     <polygon  stroke-width="0" points="0,1.008,0,16.128,5.184,16.128,5.184,16.272,5.76,16.272,5.76,16.416,6.048,16.416,6.048,16.56,6.336,16.56,6.336,16.704,6.624,16.704,6.624,16.848,8.208,16.848,8.208,1.008" stroke="none" fill="black"/>
     <polygon  stroke-width="0" points="0,16.128,0,16.992,1.44,16.992,1.44,16.848,1.584,16.848,1.584,16.704,1.872,16.704,1.872,16.56,2.16,16.56,2.16,16.416,2.592,16.416,2.592,16.272,3.168,16.272,3.168,16.128" stroke="none" fill="black"/>
     <g  id="connector0pad">
      <circle  stroke-width="0" stroke="none" r="2.7" fill="black" cx="3.885" cy="5.91"/>
     </g>
    </g>
   </g>
  </g>
  <g partID="854797050">
   <g transform="translate(13.392,45.936)">
    <g  id="groundplane1">
     <polygon  stroke-width="0" points="6.192,0,6.192,0.144,7.632,0.144,7.632,0" stroke="none" fill="black"/>
     <polygon  stroke-width="0" points="6.192,0.144,6.192,1.008,10.08,1.008,10.08,0.864,9.216,0.864,9.216,0.72,8.784,0.72,8.784,0.576,8.352,0.576,8.352,0.432,8.208,0.432,8.208,0.288,7.92,0.288,7.92,0.144" stroke="none" fill="black"/>
     <polygon  stroke-width="0" points="13.104,0.144,13.104,0.288,12.816,0.288,12.816,0.432,12.528,0.432,12.528,0.576,12.24,0.576,12.24,0.72,11.664,0.72,11.664,0.864,10.944,0.864,10.944,1.008,14.544,1.008,14.544,0.144" stroke="none" fill="black"/>
     <polygon  stroke-width="0" points="6.192,1.008,6.192,1.152,14.544,1.152,14.544,1.008" stroke="none" fill="black"/>
     <polygon  stroke-width="0" points="6.192,1.008,6.192,1.152,14.544,1.152,14.544,1.008" stroke="none" fill="black"/>
     <polygon  stroke-width="0" points="6.192,1.152,6.192,19.872,7.2,19.872,7.2,20.016,8.064,20.016,8.064,20.16,8.496,20.16,8.496,20.304,8.928,20.304,8.928,20.448,9.216,20.448,9.216,20.592,9.36,20.592,9.36,20.736,9.648,20.736,9.648,20.88,9.792,20.88,9.792,21.024,10.08,21.024,10.08,21.168,10.224,21.168,10.224,21.312,10.368,21.312,10.368,21.456,10.512,21.456,10.512,21.6,10.656,21.6,10.656,21.888,10.8,21.888,10.8,22.032,10.944,22.032,10.944,22.32,11.088,22.32,11.088,22.464,11.232,22.464,11.232,22.752,11.376,22.752,11.376,23.184,11.52,23.184,11.52,23.616,11.664,23.616,11.664,24.624,11.808,24.624,11.808,24.912,11.664,24.912,11.664,25.92,11.52,25.92,11.52,26.496,11.376,26.496,11.376,26.784,11.232,26.784,11.232,27.072,11.088,27.072,11.088,27.36,10.944,27.36,10.944,27.504,10.8,27.504,10.8,27.792,10.656,27.792,10.656,27.936,10.512,27.936,10.512,28.08,10.368,28.08,10.368,28.224,10.224,28.224,10.224,28.368,10.08,28.368,10.08,28.512,9.936,28.512,9.936,28.656,9.648,28.656,9.648,28.8,9.504,28.8,9.504,28.944,9.216,28.944,9.216,29.088,8.928,29.088,8.928,29.232,8.64,29.232,8.64,29.376,8.208,29.376,8.208,29.52,7.632,29.52,7.632,29.664,14.544,29.664,14.544,1.152" stroke="none" fill="black"/>
     <polygon  stroke-width="0" points="1.008,27.648,1.008,29.376,0.864,29.376,0.864,29.664,6.192,29.664,6.192,29.52,5.472,29.52,5.472,29.376,5.04,29.376,5.04,29.232,4.752,29.232,4.752,29.088,4.464,29.088,4.464,28.944,4.32,28.944,4.32,28.8,4.032,28.8,4.032,28.656,3.888,28.656,3.888,28.512,3.744,28.512,3.744,28.368,3.456,28.368,3.456,28.224,3.312,28.224,3.312,27.936,3.168,27.936,3.168,27.792,2.448,27.792,2.448,27.648" stroke="none" fill="black"/>
     <polygon  stroke-width="0" points="0.864,29.664,0.864,29.808,14.544,29.808,14.544,29.664" stroke="none" fill="black"/>
     <polygon  stroke-width="0" points="0.864,29.664,0.864,29.808,14.544,29.808,14.544,29.664" stroke="none" fill="black"/>
     <polygon  stroke-width="0" points="0.864,29.808,0.864,29.952,0.72,29.952,0.72,30.384,0.576,30.384,0.576,30.672,0.432,30.672,0.432,30.816,0.288,30.816,0.288,31.104,0.144,31.104,0.144,31.248,0,31.248,0,32.688,0.144,32.688,0.144,32.832,0.288,32.832,0.288,33.12,0.432,33.12,0.432,33.408,0.576,33.408,0.576,33.696,0.72,33.696,0.72,33.984,0.864,33.984,0.864,34.56,1.008,34.56,1.008,36.576,0.864,36.576,0.864,37.152,0.72,37.152,0.72,37.584,0.576,37.584,0.576,37.872,0.432,37.872,0.432,38.016,0.288,38.016,0.288,38.304,0.144,38.304,0.144,38.448,0,38.448,0,39.888,0.144,39.888,0.144,40.032,0.288,40.032,0.288,40.32,0.432,40.32,0.432,40.608,0.576,40.608,0.576,40.896,0.72,40.896,0.72,41.184,0.864,41.184,0.864,41.76,1.008,41.76,1.008,43.776,0.864,43.776,0.864,44.352,0.72,44.352,0.72,44.784,0.576,44.784,0.576,45.072,0.432,45.072,0.432,45.216,0.288,45.216,0.288,45.504,0.144,45.504,0.144,45.648,0,45.648,0,47.088,0.144,47.088,0.144,47.232,0.288,47.232,0.288,47.52,0.432,47.52,0.432,47.808,0.576,47.808,0.576,48.096,0.72,48.096,0.72,48.384,0.864,48.384,0.864,48.672,7.2,48.672,7.2,48.816,8.064,48.816,8.064,48.96,8.496,48.96,8.496,49.104,8.928,49.104,8.928,49.248,9.216,49.248,9.216,49.392,9.36,49.392,9.36,49.536,9.648,49.536,9.648,49.68,9.792,49.68,9.792,49.824,10.08,49.824,10.08,49.968,10.224,49.968,10.224,50.112,10.368,50.112,10.368,50.256,10.512,50.256,10.512,50.4,10.656,50.4,10.656,50.688,10.8,50.688,10.8,50.832,10.944,50.832,10.944,51.12,11.088,51.12,11.088,51.264,11.232,51.264,11.232,51.552,11.376,51.552,11.376,51.984,11.52,51.984,11.52,52.416,11.664,52.416,11.664,53.424,11.808,53.424,11.808,53.712,11.664,53.712,11.664,54.72,11.52,54.72,11.52,55.296,11.376,55.296,11.376,55.584,11.232,55.584,11.232,55.872,11.088,55.872,11.088,56.16,10.944,56.16,10.944,56.304,10.8,56.304,10.8,56.592,10.656,56.592,10.656,56.736,10.512,56.736,10.512,56.88,10.368,56.88,10.368,57.024,10.224,57.024,10.224,57.168,10.08,57.168,10.08,57.312,9.936,57.312,9.936,58.032,9.792,58.032,9.792,58.464,9.648,58.464,9.648,58.752,9.504,58.752,9.504,58.896,9.36,58.896,9.36,59.184,9.216,59.184,9.216,59.328,9.072,59.328,9.072,59.472,8.928,59.472,8.928,59.616,8.784,59.616,8.784,59.76,8.496,59.76,8.496,59.904,8.208,59.904,8.208,60.048,7.92,60.048,7.92,61.488,14.544,61.488,14.544,29.808" stroke="none" fill="black"/>
     <polygon  stroke-width="0" points="0.864,48.672,0.864,48.96,1.008,48.96,1.008,50.976,0.864,50.976,0.864,51.552,0.72,51.552,0.72,51.984,0.576,51.984,0.576,52.272,0.432,52.272,0.432,52.416,0.288,52.416,0.288,52.704,0.144,52.704,0.144,54.144,2.016,54.144,2.016,52.848,2.16,52.848,2.16,52.128,2.304,52.128,2.304,51.84,2.448,51.84,2.448,51.408,2.592,51.408,2.592,51.264,2.736,51.264,2.736,50.976,2.88,50.976,2.88,50.688,3.024,50.688,3.024,50.544,3.168,50.544,3.168,50.4,3.312,50.4,3.312,50.256,3.456,50.256,3.456,50.112,3.6,50.112,3.6,49.968,3.744,49.968,3.744,49.824,3.888,49.824,3.888,49.68,4.176,49.68,4.176,49.536,4.32,49.536,4.32,49.392,4.608,49.392,4.608,49.248,4.896,49.248,4.896,49.104,5.184,49.104,5.184,48.96,5.616,48.96,5.616,48.816,6.624,48.816,6.624,48.672" stroke="none" fill="black"/>
     <g  id="connector0pad">
      <circle  stroke-width="0" stroke="none" r="2.7" fill="black" cx="10.125" cy="6.51191"/>
     </g>
    </g>
   </g>
  </g>
  <g partID="854797060">
   <g transform="translate(72.504,15.12)">
    <g  id="groundplane1">
     <polygon  stroke-width="0" points="0,0,3.24,0,3.24,3.744,0,3.744" stroke="none" fill="black"/>
    </g>
   </g>
  </g>
  <g partID="854797070">
   <g transform="translate(68.976,18.648)">
    <g  id="groundplane1">
     <polygon  stroke-width="0" points="0,0,3.744,0,3.744,3.24,0,3.24" stroke="none" fill="black"/>
    </g>
   </g>
  </g>
  <g partID="854797080">
   <g transform="translate(75.456,18.648)">
    <g  id="groundplane1">
     <polygon  stroke-width="0" points="0,0,3.744,0,3.744,3.24,0,3.24" stroke="none" fill="black"/>
    </g>
   </g>
  </g>
  <g partID="854797090">
   <g transform="translate(47.304,22.32)">
    <g  id="groundplane1">
     <polygon  stroke-width="0" points="0,0,3.24,0,3.24,3.744,0,3.744" stroke="none" fill="black"/>
    </g>
   </g>
  </g>
  <g partID="854797100">
   <g transform="translate(36.504,22.32)">
    <g  id="groundplane1">
     <polygon  stroke-width="0" points="0,0,3.24,0,3.24,3.744,0,3.744" stroke="none" fill="black"/>
    </g>
   </g>
  </g>
  <g partID="854797110">
   <g transform="translate(32.976,25.848)">
    <g  id="groundplane1">
     <polygon  stroke-width="0" points="0,0,3.744,0,3.744,3.24,0,3.24" stroke="none" fill="black"/>
    </g>
   </g>
  </g>
  <g partID="854797120">
   <g transform="translate(58.104,15.12)">
    <g  id="groundplane1">
     <polygon  stroke-width="0" points="0,0,3.24,0,3.24,3.744,0,3.744" stroke="none" fill="black"/>
    </g>
   </g>
  </g>
  <g partID="854797130">
   <g transform="translate(54.576,18.648)">
    <g  id="groundplane1">
     <polygon  stroke-width="0" points="0,0,3.744,0,3.744,3.24,0,3.24" stroke="none" fill="black"/>
    </g>
   </g>
  </g>
  <g partID="854797140">
   <g transform="translate(61.056,18.648)">
    <g  id="groundplane1">
     <polygon  stroke-width="0" points="0,0,3.744,0,3.744,3.24,0,3.24" stroke="none" fill="black"/>
    </g>
   </g>
  </g>
  <g partID="854797150">
   <g transform="translate(22.104,22.32)">
    <g  id="groundplane1">
     <polygon  stroke-width="0" points="0,0,3.24,0,3.24,3.744,0,3.744" stroke="none" fill="black"/>
    </g>
   </g>
  </g>
  <g partID="854797160">
   <g transform="translate(18.576,25.848)">
    <g  id="groundplane1">
     <polygon  stroke-width="0" points="0,0,3.744,0,3.744,3.24,0,3.24" stroke="none" fill="black"/>
    </g>
   </g>
  </g>
  <g partID="854797170">
   <g transform="translate(25.056,25.848)">
    <g  id="groundplane1">
     <polygon  stroke-width="0" points="0,0,3.744,0,3.744,3.24,0,3.24" stroke="none" fill="black"/>
    </g>
   </g>
  </g>
  <g partID="854797180">
   <g transform="translate(7.704,22.32)">
    <g  id="groundplane1">
     <polygon  stroke-width="0" points="0,0,3.24,0,3.24,3.744,0,3.744" stroke="none" fill="black"/>
    </g>
   </g>
  </g>
  <g partID="854797190">
   <g transform="translate(4.176,25.848)">
    <g  id="groundplane1">
     <polygon  stroke-width="0" points="0,0,3.744,0,3.744,3.24,0,3.24" stroke="none" fill="black"/>
    </g>
   </g>
  </g>
  <g partID="854797200">
   <g transform="translate(10.656,25.848)">
    <g  id="groundplane1">
     <polygon  stroke-width="0" points="0,0,3.744,0,3.744,3.24,0,3.24" stroke="none" fill="black"/>
    </g>
   </g>
  </g>
  <g partID="854797210">
   <g transform="translate(68.976,108.504)">
    <g  id="groundplane1">
     <polygon  stroke-width="0" points="0,0,3.744,0,3.744,3.24,0,3.24" stroke="none" fill="black"/>
    </g>
   </g>
  </g>
  <g partID="854781832">
   <g transform="translate(5.59162,46.5255)">
    <g  id="copper1">
     <circle  stroke-width="1.5" id="connector0pad" stroke="black" r="2.05" fill="none" cx="3.884" cy="20.6"/>
     <circle  stroke-width="1.5" id="connector1pad" stroke="black" r="2.05" fill="none" cx="3.884" cy="27.8"/>
     <circle  stroke-width="1.5" id="connector2pad" stroke="black" r="2.05" fill="none" cx="3.884" cy="35"/>
     <circle  stroke-width="1.5" id="connector3pad" stroke="black" r="2.05" fill="none" cx="3.884" cy="42.2"/>
     <circle  stroke-width="1.5" id="connector4pad" stroke="black" r="2.05" fill="none" cx="3.884" cy="49.4"/>
     <circle  stroke-width="1.5" id="connector5pad" stroke="black" r="2.05" fill="none" cx="3.884" cy="56.6"/>
     <circle  stroke-width="1.5" id="connector6pad" stroke="black" r="2.05" fill="none" cx="3.884" cy="63.8"/>
     <circle  stroke-width="1.5" id="connector7pad" stroke="black" r="2.05" fill="none" cx="3.884" cy="71"/>
     <circle  stroke-width="1.5" id="connector8pad" stroke="black" r="2.05" fill="none" cx="68.683" cy="71"/>
     <circle  stroke-width="1.5" id="connector9pad" stroke="black" r="2.05" fill="none" cx="68.683" cy="63.8"/>
     <circle  stroke-width="1.5" id="connector10pad" stroke="black" r="2.05" fill="none" cx="68.683" cy="56.6"/>
     <circle  stroke-width="1.5" id="connector11pad" stroke="black" r="2.05" fill="none" cx="68.683" cy="49.4"/>
     <circle  stroke-width="1.5" id="connector12pad" stroke="black" r="2.05" fill="none" cx="68.683" cy="42.2"/>
     <circle  stroke-width="1.5" id="connector13pad" stroke="black" r="2.05" fill="none" cx="68.683" cy="35"/>
     <circle  stroke-width="1.5" id="connector14pad" stroke="black" r="2.05" fill="none" cx="68.683" cy="27.8"/>
     <circle  stroke-width="1.5" id="connector15pad" stroke="black" r="2.05" fill="none" cx="68.683" cy="20.6"/>
    </g>
   </g>
  </g>
  <g partID="854783432">
   <g transform="translate(4.43562,22.4855)">
    <g  id="copper1">
     <g  id="copper0">
      <circle  stroke-width="1.44" id="connector0pin" stroke="black" r="2.088" fill="none" cx="5.04" cy="5.04"/>
      <circle  stroke-width="1.44" id="connector1pin" stroke="black" r="2.088" fill="none" cx="5.04" cy="12.24"/>
      <circle  stroke-width="1.44" id="connector2pin" stroke="black" r="2.088" fill="none" cx="5.04" cy="19.44"/>
     </g>
    </g>
   </g>
  </g>
  <g partID="854783452">
   <g transform="translate(18.8356,22.4855)">
    <g  id="copper1">
     <g  id="copper0">
      <circle  stroke-width="1.44" id="connector0pin" stroke="black" r="2.088" fill="none" cx="5.04" cy="5.04"/>
      <circle  stroke-width="1.44" id="connector1pin" stroke="black" r="2.088" fill="none" cx="5.04" cy="12.24"/>
      <circle  stroke-width="1.44" id="connector2pin" stroke="black" r="2.088" fill="none" cx="5.04" cy="19.44"/>
     </g>
    </g>
   </g>
  </g>
  <g partID="854783492">
   <g transform="translate(54.8356,15.2855)">
    <g  id="copper1">
     <g  id="copper0">
      <circle  stroke-width="1.44" id="connector0pin" stroke="black" r="2.088" fill="none" cx="5.04" cy="5.04"/>
      <circle  stroke-width="1.44" id="connector1pin" stroke="black" r="2.088" fill="none" cx="5.04" cy="12.24"/>
      <circle  stroke-width="1.44" id="connector2pin" stroke="black" r="2.088" fill="none" cx="5.04" cy="19.44"/>
      <circle  stroke-width="1.44" id="connector3pin" stroke="black" r="2.088" fill="none" cx="5.04" cy="26.64"/>
     </g>
    </g>
   </g>
  </g>
  <g partID="854784362">
   <g transform="translate(23.3716,68.0255)">
    <g transform="matrix(0,1,-1,0,0,0)">
     <g  id="copper1">
      <!-- <rect width="55" x="10" y="15.5" fill="none" height="55" stroke="rgb(255, 191, 0)" stroke-width="20" />  -->
      <circle  stroke-width="1.44" id="connector0pin" stroke="black" r="1.98" fill="none" cx="2.7" cy="3.096"/>
      <circle  stroke-width="1.44" id="connector1pin" stroke="black" r="1.98" fill="none" cx="31.5" cy="3.096"/>
     </g>
    </g>
   </g>
  </g>
  <g partID="854785412">
   <g transform="translate(33.2356,22.4855)">
    <g  id="copper1">
     <g  id="copper0">
      <circle  stroke-width="1.44" id="connector0pin" stroke="black" r="2.088" fill="none" cx="5.04" cy="5.04"/>
      <circle  stroke-width="1.44" id="connector1pin" stroke="black" r="2.088" fill="none" cx="5.04" cy="12.24"/>
     </g>
    </g>
   </g>
  </g>
  <g partID="854785962">
   <g transform="translate(44.0356,22.4855)">
    <g  id="copper1">
     <g  id="copper0">
      <circle  stroke-width="1.44" id="connector0pin" stroke="black" r="2.088" fill="none" cx="5.04" cy="5.04"/>
      <circle  stroke-width="1.44" id="connector1pin" stroke="black" r="2.088" fill="none" cx="5.04" cy="12.24"/>
     </g>
    </g>
   </g>
  </g>
  <g partID="854787562">
   <g transform="translate(41.3716,68.0255)">
    <g transform="matrix(0,1,-1,0,0,0)">
     <g  id="copper1">
      <!-- <rect width="55" x="10" y="15.5" fill="none" height="55" stroke="rgb(255, 191, 0)" stroke-width="20" />  -->
      <circle  stroke-width="1.44" id="connector0pin" stroke="black" r="1.98" fill="none" cx="2.7" cy="3.096"/>
      <circle  stroke-width="1.44" id="connector1pin" stroke="black" r="1.98" fill="none" cx="31.5" cy="3.096"/>
     </g>
    </g>
   </g>
  </g>
  <g partID="854787592">
   <g transform="translate(52.1716,68.0255)">
    <g transform="matrix(0,1,-1,0,0,0)">
     <g  id="copper1">
      <!-- <rect width="55" x="10" y="15.5" fill="none" height="55" stroke="rgb(255, 191, 0)" stroke-width="20" />  -->
      <circle  stroke-width="1.44" id="connector0pin" stroke="black" r="1.98" fill="none" cx="2.7" cy="3.096"/>
      <circle  stroke-width="1.44" id="connector1pin" stroke="black" r="1.98" fill="none" cx="31.5" cy="3.096"/>
     </g>
    </g>
   </g>
  </g>
  <g partID="854790681">
   <g transform="translate(71.7402,-0.209902)">
    <g  id="copper1">
     <circle  stroke-width="0" id="nonconn0" stroke="black" r="4.53543" fill="black" cx="6.13543" cy="6.13543"/>
    </g>
   </g>
  </g>
  <g partID="854790731">
   <g transform="translate(-0.259823,-0.209902)">
    <g  id="copper1">
     <circle  stroke-width="0" id="nonconn0" stroke="black" r="4.53543" fill="black" cx="6.13543" cy="6.13543"/>
    </g>
   </g>
  </g>
  <g partID="854790761">
   <g transform="translate(71.7402,132.99)">
    <g  id="copper1">
     <circle  stroke-width="0" id="nonconn0" stroke="black" r="4.53543" fill="black" cx="6.13543" cy="6.13543"/>
    </g>
   </g>
  </g>
  <g partID="854790791">
   <g transform="translate(-0.259826,132.99)">
    <g  id="copper1">
     <circle  stroke-width="0" id="nonconn0" stroke="black" r="4.53543" fill="black" cx="6.13543" cy="6.13543"/>
    </g>
   </g>
  </g>
  <g partID="854790852">
   <g transform="translate(69.2356,15.2855)">
    <g  id="copper1">
     <g  id="copper0">
      <circle  stroke-width="1.44" id="connector0pin" stroke="black" r="2.088" fill="none" cx="5.04" cy="5.04"/>
      <circle  stroke-width="1.44" id="connector1pin" stroke="black" r="2.088" fill="none" cx="5.04" cy="12.24"/>
      <circle  stroke-width="1.44" id="connector2pin" stroke="black" r="2.088" fill="none" cx="5.04" cy="19.44"/>
      <circle  stroke-width="1.44" id="connector3pin" stroke="black" r="2.088" fill="none" cx="5.04" cy="26.64"/>
     </g>
    </g>
   </g>
  </g>
  <g partID="854784390">
   <line stroke-width="1.728" stroke-linecap="round" stroke="black" x2="20.3192" y1="101.585" x1="20.3" y2="103.213"/>
  </g>
  <g partID="854787000">
   <line stroke-width="1.728" stroke-linecap="round" stroke="black" x2="72.1747" y1="81.4349" x1="67.0828" y2="81.4991"/>
  </g>
  <g partID="854786930">
   <line stroke-width="1.728" stroke-linecap="round" stroke="black" x2="67.0828" y1="34.7291" x1="67.0828" y2="81.4349"/>
  </g>
  <g partID="854786860">
   <line stroke-width="1.728" stroke-linecap="round" stroke="black" x2="67.0828" y1="34.7266" x1="62.0436" y2="34.7291"/>
  </g>
  <g partID="854787280">
   <line stroke-width="1.728" stroke-linecap="round" stroke="black" x2="26.0436" y1="34.7291" x1="31.0109" y2="34.7266"/>
  </g>
  <g partID="854787350">
   <line stroke-width="1.728" stroke-linecap="round" stroke="black" x2="31.0109" y1="110.418" x1="31.0109" y2="34.7291"/>
  </g>
  <g partID="854787210">
   <line stroke-width="1.728" stroke-linecap="round" stroke="black" x2="31.0109" y1="110.335" x1="11.5756" y2="110.418"/>
  </g>
  <g partID="854787610">
   <line stroke-width="1.728" stroke-linecap="round" stroke="black" x2="38.2756" y1="68.6655" x1="38.2756" y2="36.8935"/>
  </g>
  <g partID="854787680">
   <line stroke-width="1.728" stroke-linecap="round" stroke="black" x2="49.0756" y1="68.6655" x1="49.0756" y2="36.8935"/>
  </g>
  <g partID="854788780">
   <line stroke-width="1.728" stroke-linecap="round" stroke="black" x2="11.5756" y1="117.507" x1="38.3087" y2="117.524"/>
  </g>
  <g partID="854788630">
   <line stroke-width="1.728" stroke-linecap="round" stroke="black" x2="38.3087" y1="101.586" x1="38.2794" y2="117.507"/>
  </g>
  <g partID="854788930">
   <line stroke-width="1.728" stroke-linecap="round" stroke="black" x2="40.3356" y1="99.5255" x1="47.0156" y2="99.5255"/>
  </g>
  <g partID="854787420">
   <line stroke-width="1.728" stroke-linecap="round" stroke="black" x2="16.6298" y1="70.7372" x1="18.2157" y2="70.7462"/>
  </g>
  <g partID="854787490">
   <line stroke-width="1.728" stroke-linecap="round" stroke="black" x2="11.6436" y1="34.7748" x1="16.6298" y2="34.7405"/>
  </g>
  <g partID="854790610">
   <line stroke-width="1.728" stroke-linecap="round" stroke="black" x2="11.5756" y1="103.213" x1="20.3192" y2="103.142"/>
  </g>
  <g partID="854791070">
   <line stroke-width="1.728" stroke-linecap="round" stroke="black" x2="72.1076" y1="34.7255" x1="62.0436" y2="34.7255"/>
  </g>
  <g partID="854791290">
   <line stroke-width="1.728" stroke-linecap="round" stroke="black" x2="76.4436" y1="41.8873" x1="81.3991" y2="41.9139"/>
  </g>
  <g partID="854791400">
   <line stroke-width="1.728" stroke-linecap="round" stroke="black" x2="81.3991" y1="117.485" x1="81.3991" y2="41.8873"/>
  </g>
  <g partID="854791180">
   <line stroke-width="1.728" stroke-linecap="round" stroke="black" x2="81.3991" y1="117.514" x1="76.3745" y2="117.485"/>
  </g>
  <g partID="854796260">
   <line stroke-width="1.728" stroke-linecap="round" stroke="black" x2="16.6298" y1="70.7462" x1="16.6298" y2="34.7748"/>
  </g>
  <g partID="854797650">
   <line stroke-width="1.728" stroke-linecap="round" stroke="black" x2="40.4436" y1="27.5255" x1="46.9076" y2="27.5255"/>
  </g>
  <g partID="854797830">
   <line stroke-width="1.728" stroke-linecap="round" stroke="black" x2="43.704" y1="28.2757" x1="40.3097" y2="31.104"/>
  </g>
  <g partID="854797900">
   <line stroke-width="1.728" stroke-linecap="round" stroke="black" x2="43.704" y1="28.345" x1="47.0685" y2="31.104"/>
  </g>
  <g partID="854797970">
   <line stroke-width="1.728" stroke-linecap="round" stroke="black" x2="54.504" y1="28.2757" x1="51.1097" y2="31.104"/>
  </g>
  <g partID="854798300">
   <line stroke-width="1.728" stroke-linecap="round" stroke="black" x2="43.704" y1="31.104" x1="43.704" y2="52.92"/>
  </g>
  <g partID="854798780">
   <line stroke-width="1.728" stroke-linecap="round" stroke="black" x2="57.7076" y1="20.3336" x1="49.1126" y2="20.3272"/>
  </g>
  <g partID="854798670">
   <line stroke-width="1.728" stroke-linecap="round" stroke="black" x2="49.1126" y1="25.3576" x1="49.0868" y2="20.3336"/>
  </g>
  <g partID="854798890">
   <line stroke-width="1.728" stroke-linecap="round" stroke="black" x2="62.0436" y1="20.3255" x1="72.1076" y2="20.3255"/>
  </g>
  <g partID="854799000">
   <line stroke-width="1.728" stroke-linecap="round" stroke="black" x2="36.1076" y1="27.5255" x1="26.0436" y2="27.5255"/>
  </g>
  <g partID="854799150">
   <line stroke-width="1.728" stroke-linecap="round" stroke="black" x2="21.7076" y1="27.5255" x1="11.6436" y2="27.5255"/>
  </g>
 </g>
</svg>
