<?xml version='1.0' encoding='UTF-8' standalone='no'?>
<!-- Created with Fritzing (http://www.fritzing.org/) -->
<svg xmlns="http://www.w3.org/2000/svg"  baseProfile="tiny" xmlns:svg="http://www.w3.org/2000/svg" x="0in" height="2.01686in" version="1.2" viewBox="0 0 84.4081 145.214" y="0in" width="1.17233in">
 <g partID="57470">
  <g  id="board">
   <rect  stroke-width="0.5" id="boardoutline" x="0.288" stroke="black" height="144.638" fill-opacity="0.5" fill="none" y="0.288" width="83.8321"/>
  </g>
 </g>
 <g partID="854796790">
  <g transform="translate(42.336,29.088)">
   <g  id="groundplane">
    <g  id="connector0pad">
     <polygon  stroke-width="0" points="0.576,0,0.576,0.432,0.432,0.432,0.432,0.72,0.288,0.72,0.288,1.008,0.144,1.008,0.144,1.152,0,1.152,0,2.88,0.144,2.88,0.144,3.168,0.288,3.168,0.288,3.456,0.432,3.456,0.432,3.744,0.576,3.744,0.576,4.032,2.016,4.032,2.016,3.888,2.16,3.888,2.16,3.6,2.304,3.6,2.304,3.312,2.448,3.312,2.448,3.024,2.592,3.024,2.592,2.88,2.736,2.88,2.736,1.296,2.592,1.296,2.592,1.008,2.448,1.008,2.448,0.864,2.304,0.864,2.304,0.576,2.16,0.576,2.16,0.144,2.016,0.144,2.016,0" stroke="none" fill="black"/>
    </g>
   </g>
  </g>
 </g>
 <g partID="854796800">
  <g transform="translate(53.136,29.088)">
   <g  id="groundplane">
    <g  id="connector0pad">
     <polygon  stroke-width="0" points="0.576,0,0.576,0.432,0.432,0.432,0.432,0.72,0.288,0.72,0.288,1.008,0.144,1.008,0.144,1.152,0,1.152,0,2.88,0.144,2.88,0.144,3.168,0.288,3.168,0.288,3.456,0.432,3.456,0.432,3.744,0.576,3.744,0.576,4.032,2.016,4.032,2.016,3.888,2.16,3.888,2.16,3.6,2.304,3.6,2.304,3.312,2.448,3.312,2.448,3.024,2.592,3.024,2.592,2.88,2.736,2.88,2.736,1.296,2.592,1.296,2.592,1.008,2.448,1.008,2.448,0.864,2.304,0.864,2.304,0.576,2.16,0.576,2.16,0.144,2.016,0.144,2.016,0" stroke="none" fill="black"/>
    </g>
   </g>
  </g>
 </g>
 <g partID="854796810">
  <g transform="translate(2.88,2.88)">
   <g  id="groundplane">
    <polygon  stroke-width="0" points="9.504,0,9.504,1.872,9.648,1.872,9.648,4.176,9.504,4.176,9.504,4.896,9.36,4.896,9.36,5.328,9.216,5.328,9.216,5.76,9.072,5.76,9.072,6.048,8.928,6.048,8.928,6.336,8.784,6.336,8.784,6.48,8.64,6.48,8.64,6.768,8.496,6.768,8.496,6.912,8.352,6.912,8.352,7.2,8.208,7.2,8.208,7.344,8.064,7.344,8.064,7.488,7.92,7.488,7.92,7.632,7.776,7.632,7.776,7.776,7.632,7.776,7.632,7.92,7.488,7.92,7.488,8.064,7.344,8.064,7.344,8.208,7.2,8.208,7.2,8.352,6.912,8.352,6.912,8.496,6.768,8.496,6.768,8.64,6.48,8.64,6.48,8.784,6.336,8.784,6.336,8.928,6.048,8.928,6.048,9.072,5.76,9.072,5.76,9.216,5.328,9.216,5.328,9.36,5.04,9.36,5.04,9.504,4.464,9.504,4.464,9.648,3.312,9.648,3.312,9.792,74.592,9.792,74.592,9.648,73.584,9.648,73.584,9.504,73.008,9.504,73.008,9.36,72.576,9.36,72.576,9.216,72.288,9.216,72.288,9.072,72,9.072,72,8.928,71.712,8.928,71.712,8.784,71.424,8.784,71.424,8.64,71.28,8.64,71.28,8.496,70.992,8.496,70.992,8.352,70.848,8.352,70.848,8.208,70.704,8.208,70.704,8.064,70.56,8.064,70.56,7.92,70.272,7.92,70.272,7.776,70.128,7.776,70.128,7.488,69.984,7.488,69.984,7.344,69.84,7.344,69.84,7.2,69.696,7.2,69.696,7.056,69.552,7.056,69.552,6.768,69.408,6.768,69.408,6.624,69.264,6.624,69.264,6.336,69.12,6.336,69.12,6.048,68.976,6.048,68.976,5.76,68.832,5.76,68.832,5.472,68.688,5.472,68.688,5.04,68.544,5.04,68.544,4.464,68.4,4.464,68.4,3.6,68.256,3.6,68.256,2.592,68.4,2.592,68.4,1.584,68.544,1.584,68.544,0" stroke="none" fill="black"/>
    <polygon  stroke-width="0" points="77.04,9.36,77.04,9.504,76.464,9.504,76.464,9.648,75.312,9.648,75.312,9.792,78.624,9.792,78.624,9.36" stroke="none" fill="black"/>
    <polygon  stroke-width="0" points="0,9.504,0,9.792,2.592,9.792,2.592,9.648,1.584,9.648,1.584,9.504" stroke="none" fill="black"/>
    <polygon  stroke-width="0" points="0,9.792,0,9.936,78.624,9.936,78.624,9.792" stroke="none" fill="black"/>
    <polygon  stroke-width="0" points="0,9.792,0,9.936,78.624,9.936,78.624,9.792" stroke="none" fill="black"/>
    <polygon  stroke-width="0" points="0,9.792,0,9.936,78.624,9.936,78.624,9.792" stroke="none" fill="black"/>
    <polygon  stroke-width="0" points="0,9.936,0,12.528,72.432,12.528,72.432,12.672,73.008,12.672,73.008,12.816,73.296,12.816,73.296,12.96,73.728,12.96,73.728,13.104,73.872,13.104,73.872,13.248,74.16,13.248,74.16,13.392,74.304,13.392,74.304,13.536,74.592,13.536,74.592,13.68,74.736,13.68,74.736,13.824,74.88,13.824,74.88,13.968,75.024,13.968,75.024,14.112,75.168,14.112,75.168,14.256,75.312,14.256,75.312,14.544,75.456,14.544,75.456,14.688,75.6,14.688,75.6,14.976,75.744,14.976,75.744,15.264,75.888,15.264,75.888,15.552,76.032,15.552,76.032,15.84,76.176,15.84,76.176,16.416,76.32,16.416,76.32,18.432,76.176,18.432,76.176,19.008,76.032,19.008,76.032,19.44,75.888,19.44,75.888,19.728,75.744,19.728,75.744,20.016,75.6,20.016,75.6,20.16,75.456,20.16,75.456,21.888,75.6,21.888,75.6,22.176,75.744,22.176,75.744,22.464,75.888,22.464,75.888,22.752,76.032,22.752,76.032,23.04,76.176,23.04,76.176,23.616,76.32,23.616,76.32,25.632,76.176,25.632,76.176,26.208,76.032,26.208,76.032,26.64,75.888,26.64,75.888,26.928,75.744,26.928,75.744,27.216,75.6,27.216,75.6,27.36,75.456,27.36,75.456,29.088,75.6,29.088,75.6,29.376,75.744,29.376,75.744,29.664,75.888,29.664,75.888,29.952,76.032,29.952,76.032,30.24,76.176,30.24,76.176,30.816,76.32,30.816,76.32,32.832,76.176,32.832,76.176,33.408,76.032,33.408,76.032,33.84,75.888,33.84,75.888,34.128,75.744,34.128,75.744,34.416,75.6,34.416,75.6,34.56,75.456,34.56,75.456,36.288,75.6,36.288,75.6,36.576,75.744,36.576,75.744,36.864,75.888,36.864,75.888,37.152,76.032,37.152,76.032,37.44,76.176,37.44,76.176,38.016,76.32,38.016,76.32,40.032,76.176,40.032,76.176,40.608,76.032,40.608,76.032,41.04,75.888,41.04,75.888,41.328,75.744,41.328,75.744,41.616,75.6,41.616,75.6,41.76,75.456,41.76,75.456,42.048,75.312,42.048,75.312,42.192,75.168,42.192,75.168,42.336,75.024,42.336,75.024,42.48,74.88,42.48,74.88,42.624,74.736,42.624,74.736,42.768,74.592,42.768,74.592,42.912,74.448,42.912,74.448,43.056,74.16,43.056,74.16,43.2,74.016,43.2,74.016,43.344,73.728,43.344,73.728,43.488,73.44,43.488,73.44,43.632,73.152,43.632,73.152,43.776,72.576,43.776,72.576,43.92,71.856,43.92,71.856,44.064,78.624,44.064,78.624,9.936" stroke="none" fill="black"/>
    <polygon  stroke-width="0" points="0,12.528,0,19.728,47.232,19.728,47.232,19.872,47.808,19.872,47.808,20.016,48.096,20.016,48.096,20.16,48.528,20.16,48.528,20.304,48.672,20.304,48.672,20.448,48.96,20.448,48.96,20.592,49.104,20.592,49.104,20.736,49.392,20.736,49.392,20.88,49.536,20.88,49.536,21.024,49.68,21.024,49.68,21.168,49.824,21.168,49.824,21.312,49.968,21.312,49.968,21.456,50.112,21.456,50.112,21.744,50.256,21.744,50.256,21.888,50.4,21.888,50.4,22.176,50.544,22.176,50.544,22.464,50.688,22.464,50.688,22.752,50.832,22.752,50.832,23.04,52.272,23.04,52.272,22.896,52.416,22.896,52.416,22.608,52.56,22.608,52.56,22.32,52.704,22.32,52.704,22.032,52.848,22.032,52.848,21.888,52.992,21.888,52.992,20.304,52.848,20.304,52.848,20.016,52.704,20.016,52.704,19.872,52.56,19.872,52.56,19.584,52.416,19.584,52.416,19.152,52.272,19.152,52.272,18.72,52.128,18.72,52.128,17.856,51.984,17.856,51.984,16.992,52.128,16.992,52.128,16.128,52.272,16.128,52.272,15.696,52.416,15.696,52.416,15.408,52.56,15.408,52.56,15.12,52.704,15.12,52.704,14.832,52.848,14.832,52.848,14.688,52.992,14.688,52.992,14.4,53.136,14.4,53.136,14.256,53.28,14.256,53.28,14.112,53.424,14.112,53.424,13.968,53.568,13.968,53.568,13.824,53.712,13.824,53.712,13.68,53.856,13.68,53.856,13.536,54,13.536,54,13.392,54.288,13.392,54.288,13.248,54.432,13.248,54.432,13.104,54.72,13.104,54.72,12.96,55.008,12.96,55.008,12.816,55.44,12.816,55.44,12.672,55.872,12.672,55.872,12.528" stroke="none" fill="black"/>
    <polygon  stroke-width="0" points="58.032,12.528,58.032,12.672,58.608,12.672,58.608,12.816,58.896,12.816,58.896,12.96,59.328,12.96,59.328,13.104,59.472,13.104,59.472,13.248,59.76,13.248,59.76,13.392,59.904,13.392,59.904,13.536,60.192,13.536,60.192,13.68,60.336,13.68,60.336,13.824,60.48,13.824,60.48,13.968,60.624,13.968,60.624,14.112,60.768,14.112,60.768,14.256,60.912,14.256,60.912,14.544,61.056,14.544,61.056,14.688,61.2,14.688,61.2,14.976,61.344,14.976,61.344,15.264,61.488,15.264,61.488,15.552,61.632,15.552,61.632,15.84,61.776,15.84,61.776,16.416,61.92,16.416,61.92,18.432,61.776,18.432,61.776,19.008,61.632,19.008,61.632,19.44,61.488,19.44,61.488,19.728,61.344,19.728,61.344,20.016,61.2,20.016,61.2,20.16,61.056,20.16,61.056,21.456,64.224,21.456,64.224,21.6,67.248,21.6,67.248,20.016,67.104,20.016,67.104,19.872,66.96,19.872,66.96,19.584,66.816,19.584,66.816,19.152,66.672,19.152,66.672,18.72,66.528,18.72,66.528,17.856,66.384,17.856,66.384,16.992,66.528,16.992,66.528,16.128,66.672,16.128,66.672,15.696,66.816,15.696,66.816,15.408,66.96,15.408,66.96,15.12,67.104,15.12,67.104,14.832,67.248,14.832,67.248,14.688,67.392,14.688,67.392,14.4,67.536,14.4,67.536,14.256,67.68,14.256,67.68,14.112,67.824,14.112,67.824,13.968,67.968,13.968,67.968,13.824,68.112,13.824,68.112,13.68,68.256,13.68,68.256,13.536,68.4,13.536,68.4,13.392,68.688,13.392,68.688,13.248,68.832,13.248,68.832,13.104,69.12,13.104,69.12,12.96,69.408,12.96,69.408,12.816,69.84,12.816,69.84,12.672,70.272,12.672,70.272,12.528" stroke="none" fill="black"/>
    <polygon  stroke-width="0" points="0,19.728,0,44.064,6.192,44.064,6.192,43.92,5.328,43.92,5.328,43.776,4.896,43.776,4.896,43.632,4.464,43.632,4.464,43.488,4.32,43.488,4.32,43.344,4.032,43.344,4.032,43.2,3.744,43.2,3.744,43.056,3.6,43.056,3.6,42.912,3.456,42.912,3.456,42.768,3.168,42.768,3.168,42.624,3.024,42.624,3.024,42.48,2.88,42.48,2.88,42.192,2.736,42.192,2.736,42.048,2.592,42.048,2.592,41.904,2.448,41.904,2.448,41.616,2.304,41.616,2.304,41.472,2.16,41.472,2.16,41.184,2.016,41.184,2.016,40.752,1.872,40.752,1.872,40.32,1.728,40.32,1.728,39.6,1.584,39.6,1.584,38.592,1.728,38.592,1.728,37.728,1.872,37.728,1.872,37.296,2.016,37.296,2.016,37.008,2.16,37.008,2.16,36.72,2.304,36.72,2.304,36.432,2.448,36.432,2.448,36.288,2.592,36.288,2.592,34.704,2.448,34.704,2.448,34.416,2.304,34.416,2.304,34.272,2.16,34.272,2.16,33.984,2.016,33.984,2.016,33.552,1.872,33.552,1.872,33.12,1.728,33.12,1.728,32.4,1.584,32.4,1.584,31.392,1.728,31.392,1.728,30.528,1.872,30.528,1.872,30.096,2.016,30.096,2.016,29.808,2.16,29.808,2.16,29.52,2.304,29.52,2.304,29.232,2.448,29.232,2.448,29.088,2.592,29.088,2.592,27.504,2.448,27.504,2.448,27.216,2.304,27.216,2.304,27.072,2.16,27.072,2.16,26.784,2.016,26.784,2.016,26.352,1.872,26.352,1.872,25.92,1.728,25.92,1.728,25.2,1.584,25.2,1.584,24.192,1.728,24.192,1.728,23.328,1.872,23.328,1.872,22.896,2.016,22.896,2.016,22.608,2.16,22.608,2.16,22.32,2.304,22.32,2.304,22.032,2.448,22.032,2.448,21.888,2.592,21.888,2.592,21.6,2.736,21.6,2.736,21.456,2.88,21.456,2.88,21.312,3.024,21.312,3.024,21.168,3.168,21.168,3.168,21.024,3.312,21.024,3.312,20.88,3.456,20.88,3.456,20.736,3.6,20.736,3.6,20.592,3.888,20.592,3.888,20.448,4.032,20.448,4.032,20.304,4.32,20.304,4.32,20.16,4.608,20.16,4.608,20.016,5.04,20.016,5.04,19.872,5.472,19.872,5.472,19.728" stroke="none" fill="black"/>
    <polygon  stroke-width="0" points="7.632,19.728,7.632,19.872,8.208,19.872,8.208,20.016,8.496,20.016,8.496,20.16,8.928,20.16,8.928,20.304,9.072,20.304,9.072,20.448,9.36,20.448,9.36,20.592,9.504,20.592,9.504,20.736,9.792,20.736,9.792,20.88,9.936,20.88,9.936,21.024,10.08,21.024,10.08,21.168,10.224,21.168,10.224,21.312,10.368,21.312,10.368,21.456,10.512,21.456,10.512,21.744,10.656,21.744,10.656,21.888,10.8,21.888,10.8,22.176,10.944,22.176,10.944,22.464,11.088,22.464,11.088,22.752,11.232,22.752,11.232,23.04,11.376,23.04,11.376,23.616,11.52,23.616,11.52,25.632,11.376,25.632,11.376,26.208,11.232,26.208,11.232,26.64,11.088,26.64,11.088,26.928,10.944,26.928,10.944,27.216,10.8,27.216,10.8,27.36,10.656,27.36,10.656,29.088,10.8,29.088,10.8,29.376,10.944,29.376,10.944,29.664,11.088,29.664,11.088,29.952,11.232,29.952,11.232,30.24,11.376,30.24,11.376,30.816,11.52,30.816,11.52,32.832,11.376,32.832,11.376,33.408,11.232,33.408,11.232,33.84,11.088,33.84,11.088,34.128,10.944,34.128,10.944,34.416,10.8,34.416,10.8,34.56,10.656,34.56,10.656,36,16.848,36,16.848,34.416,16.704,34.416,16.704,34.272,16.56,34.272,16.56,33.984,16.416,33.984,16.416,33.552,16.272,33.552,16.272,33.12,16.128,33.12,16.128,32.4,15.984,32.4,15.984,31.392,16.128,31.392,16.128,30.528,16.272,30.528,16.272,30.096,16.416,30.096,16.416,29.808,16.56,29.808,16.56,29.52,16.704,29.52,16.704,29.232,16.848,29.232,16.848,29.088,16.992,29.088,16.992,27.504,16.848,27.504,16.848,27.216,16.704,27.216,16.704,27.072,16.56,27.072,16.56,26.784,16.416,26.784,16.416,26.352,16.272,26.352,16.272,25.92,16.128,25.92,16.128,25.2,15.984,25.2,15.984,24.192,16.128,24.192,16.128,23.328,16.272,23.328,16.272,22.896,16.416,22.896,16.416,22.608,16.56,22.608,16.56,22.32,16.704,22.32,16.704,22.032,16.848,22.032,16.848,21.888,16.992,21.888,16.992,21.6,17.136,21.6,17.136,21.456,17.28,21.456,17.28,21.312,17.424,21.312,17.424,21.168,17.568,21.168,17.568,21.024,17.712,21.024,17.712,20.88,17.856,20.88,17.856,20.736,18,20.736,18,20.592,18.288,20.592,18.288,20.448,18.432,20.448,18.432,20.304,18.72,20.304,18.72,20.16,19.008,20.16,19.008,20.016,19.44,20.016,19.44,19.872,19.872,19.872,19.872,19.728" stroke="none" fill="black"/>
    <polygon  stroke-width="0" points="22.032,19.728,22.032,19.872,22.608,19.872,22.608,20.016,22.896,20.016,22.896,20.16,23.328,20.16,23.328,20.304,23.472,20.304,23.472,20.448,23.76,20.448,23.76,20.592,23.904,20.592,23.904,20.736,24.192,20.736,24.192,20.88,24.336,20.88,24.336,21.024,24.48,21.024,24.48,21.168,24.624,21.168,24.624,21.312,24.768,21.312,24.768,21.456,24.912,21.456,24.912,21.744,25.056,21.744,25.056,21.888,25.2,21.888,25.2,22.176,25.344,22.176,25.344,22.464,25.488,22.464,25.488,22.752,25.632,22.752,25.632,23.04,25.776,23.04,25.776,23.616,25.92,23.616,25.92,25.632,25.776,25.632,25.776,26.208,25.632,26.208,25.632,26.64,25.488,26.64,25.488,26.928,25.344,26.928,25.344,27.216,25.2,27.216,25.2,27.36,25.056,27.36,25.056,29.088,25.2,29.088,25.2,29.376,25.344,29.376,25.344,29.664,25.488,29.664,25.488,29.952,25.632,29.952,25.632,30.24,25.776,30.24,25.776,30.816,25.92,30.816,25.92,32.832,25.776,32.832,25.776,33.408,25.632,33.408,25.632,33.84,25.488,33.84,25.488,34.128,25.344,34.128,25.344,34.416,25.2,34.416,25.2,34.56,25.056,34.56,25.056,36,31.248,36,31.248,34.416,31.104,34.416,31.104,34.272,30.96,34.272,30.96,33.984,30.816,33.984,30.816,33.552,30.672,33.552,30.672,33.12,30.528,33.12,30.528,32.4,30.384,32.4,30.384,31.392,30.528,31.392,30.528,30.528,30.672,30.528,30.672,30.096,30.816,30.096,30.816,29.808,30.96,29.808,30.96,29.52,31.104,29.52,31.104,29.232,31.248,29.232,31.248,29.088,31.392,29.088,31.392,27.504,31.248,27.504,31.248,27.216,31.104,27.216,31.104,27.072,30.96,27.072,30.96,26.784,30.816,26.784,30.816,26.352,30.672,26.352,30.672,25.92,30.528,25.92,30.528,25.2,30.384,25.2,30.384,24.192,30.528,24.192,30.528,23.328,30.672,23.328,30.672,22.896,30.816,22.896,30.816,22.608,30.96,22.608,30.96,22.32,31.104,22.32,31.104,22.032,31.248,22.032,31.248,21.888,31.392,21.888,31.392,21.6,31.536,21.6,31.536,21.456,31.68,21.456,31.68,21.312,31.824,21.312,31.824,21.168,31.968,21.168,31.968,21.024,32.112,21.024,32.112,20.88,32.256,20.88,32.256,20.736,32.4,20.736,32.4,20.592,32.688,20.592,32.688,20.448,32.832,20.448,32.832,20.304,33.12,20.304,33.12,20.16,33.408,20.16,33.408,20.016,33.84,20.016,33.84,19.872,34.272,19.872,34.272,19.728" stroke="none" fill="black"/>
    <polygon  stroke-width="0" points="36.432,19.728,36.432,19.872,37.008,19.872,37.008,20.016,37.296,20.016,37.296,20.16,37.728,20.16,37.728,20.304,37.872,20.304,37.872,20.448,38.16,20.448,38.16,20.592,38.304,20.592,38.304,20.736,38.592,20.736,38.592,20.88,38.736,20.88,38.736,21.024,38.88,21.024,38.88,21.168,39.024,21.168,39.024,21.312,39.168,21.312,39.168,21.456,39.312,21.456,39.312,21.744,39.456,21.744,39.456,21.888,39.6,21.888,39.6,22.176,39.744,22.176,39.744,22.464,39.888,22.464,39.888,22.752,40.032,22.752,40.032,23.04,41.472,23.04,41.472,22.896,41.616,22.896,41.616,22.608,41.76,22.608,41.76,22.32,41.904,22.32,41.904,22.032,42.048,22.032,42.048,21.888,42.192,21.888,42.192,21.6,42.336,21.6,42.336,21.456,42.48,21.456,42.48,21.312,42.624,21.312,42.624,21.168,42.768,21.168,42.768,21.024,42.912,21.024,42.912,20.88,43.056,20.88,43.056,20.736,43.2,20.736,43.2,20.592,43.488,20.592,43.488,20.448,43.632,20.448,43.632,20.304,43.92,20.304,43.92,20.16,44.208,20.16,44.208,20.016,44.64,20.016,44.64,19.872,45.072,19.872,45.072,19.728" stroke="none" fill="black"/>
    <polygon  stroke-width="0" points="61.056,21.456,61.056,21.6,64.08,21.6,64.08,21.456" stroke="none" fill="black"/>
    <polygon  stroke-width="0" points="10.512,42.048,10.512,42.192,10.368,42.192,10.368,42.336,10.224,42.336,10.224,42.48,10.08,42.48,10.08,42.624,9.936,42.624,9.936,42.768,9.792,42.768,9.792,42.912,9.648,42.912,9.648,43.056,9.36,43.056,9.36,43.2,9.216,43.2,9.216,43.344,8.928,43.344,8.928,43.488,8.64,43.488,8.64,43.632,8.352,43.632,8.352,43.776,7.776,43.776,7.776,43.92,7.056,43.92,7.056,44.064,18,44.064,18,42.912,17.856,42.912,17.856,42.768,17.568,42.768,17.568,42.624,17.424,42.624,17.424,42.48,17.28,42.48,17.28,42.192,17.136,42.192,17.136,42.048" stroke="none" fill="black"/>
    <polygon  stroke-width="0" points="24.912,42.048,24.912,42.192,24.768,42.192,24.768,42.336,24.624,42.336,24.624,42.48,24.48,42.48,24.48,42.624,24.336,42.624,24.336,42.768,24.192,42.768,24.192,42.912,24.048,42.912,24.048,44.064,56.592,44.064,56.592,43.92,55.728,43.92,55.728,43.776,55.296,43.776,55.296,43.632,54.864,43.632,54.864,43.488,54.72,43.488,54.72,43.344,54.432,43.344,54.432,43.2,54.144,43.2,54.144,43.056,54,43.056,54,42.912,53.856,42.912,53.856,42.768,53.568,42.768,53.568,42.624,53.424,42.624,53.424,42.48,53.28,42.48,53.28,42.192,53.136,42.192,53.136,42.048" stroke="none" fill="black"/>
    <polygon  stroke-width="0" points="59.76,43.056,59.76,43.2,59.616,43.2,59.616,43.344,59.328,43.344,59.328,43.488,59.04,43.488,59.04,43.632,58.752,43.632,58.752,43.776,58.176,43.776,58.176,43.92,57.456,43.92,57.456,44.064,61.2,44.064,61.2,43.056" stroke="none" fill="black"/>
    <polygon  stroke-width="0" points="67.248,43.2,67.248,44.064,70.992,44.064,70.992,43.92,70.128,43.92,70.128,43.776,69.696,43.776,69.696,43.632,69.264,43.632,69.264,43.488,69.12,43.488,69.12,43.344,68.832,43.344,68.832,43.2" stroke="none" fill="black"/>
    <polygon  stroke-width="0" points="0,44.064,0,44.208,18,44.208,18,44.064" stroke="none" fill="black"/>
    <polygon  stroke-width="0" points="0,44.064,0,44.208,18,44.208,18,44.064" stroke="none" fill="black"/>
    <polygon  stroke-width="0" points="24.048,44.064,24.048,44.208,61.2,44.208,61.2,44.064" stroke="none" fill="black"/>
    <polygon  stroke-width="0" points="24.048,44.064,24.048,44.208,61.2,44.208,61.2,44.064" stroke="none" fill="black"/>
    <polygon  stroke-width="0" points="67.248,44.064,67.248,44.208,78.624,44.208,78.624,44.064" stroke="none" fill="black"/>
    <polygon  stroke-width="0" points="67.248,44.064,67.248,44.208,78.624,44.208,78.624,44.064" stroke="none" fill="black"/>
    <polygon  stroke-width="0" points="0,44.208,0,59.328,7.632,59.328,7.632,59.472,8.208,59.472,8.208,59.616,8.496,59.616,8.496,59.76,8.784,59.76,8.784,59.904,9.072,59.904,9.072,60.048,9.36,60.048,9.36,60.192,9.504,60.192,9.504,60.336,9.792,60.336,9.792,60.48,9.936,60.48,9.936,60.624,10.08,60.624,10.08,60.768,10.224,60.768,10.224,60.912,10.368,60.912,10.368,61.2,10.512,61.2,10.512,61.344,10.656,61.344,10.656,61.488,10.8,61.488,10.8,61.776,10.944,61.776,10.944,62.064,11.088,62.064,11.088,62.352,11.232,62.352,11.232,62.64,11.376,62.64,11.376,63.216,11.52,63.216,11.52,65.232,11.376,65.232,11.376,65.808,11.232,65.808,11.232,66.24,11.088,66.24,11.088,66.528,10.944,66.528,10.944,66.672,10.8,66.672,10.8,66.96,10.656,66.96,10.656,67.104,10.512,67.104,10.512,68.544,10.656,68.544,10.656,68.688,10.8,68.688,10.8,68.976,10.944,68.976,10.944,69.264,11.088,69.264,11.088,69.552,11.232,69.552,11.232,69.84,11.376,69.84,11.376,70.416,11.52,70.416,11.52,72.432,11.376,72.432,11.376,72.72,16.704,72.72,16.704,72.576,15.984,72.576,15.984,72.432,15.552,72.432,15.552,72.288,15.264,72.288,15.264,72.144,14.976,72.144,14.976,72,14.832,72,14.832,71.856,14.544,71.856,14.544,71.712,14.4,71.712,14.4,71.568,14.256,71.568,14.256,71.424,13.968,71.424,13.968,71.28,13.824,71.28,13.824,70.992,13.68,70.992,13.68,70.848,13.536,70.848,13.536,70.704,13.392,70.704,13.392,70.416,13.248,70.416,13.248,70.272,13.104,70.272,13.104,69.984,12.96,69.984,12.96,69.696,12.816,69.696,12.816,69.264,12.672,69.264,12.672,68.544,12.528,68.544,12.528,67.104,12.672,67.104,12.672,66.384,12.816,66.384,12.816,66.096,12.96,66.096,12.96,65.664,13.104,65.664,13.104,65.52,13.248,65.52,13.248,65.232,13.392,65.232,13.392,64.944,13.536,64.944,13.536,64.8,13.68,64.8,13.68,64.656,13.824,64.656,13.824,64.512,13.968,64.512,13.968,64.368,14.112,64.368,14.112,64.224,14.256,64.224,14.256,64.08,14.4,64.08,14.4,63.936,14.688,63.936,14.688,63.792,14.832,63.792,14.832,63.648,15.12,63.648,15.12,63.504,15.408,63.504,15.408,63.36,15.696,63.36,15.696,63.216,16.128,63.216,16.128,63.072,17.136,63.072,17.136,62.928,18.144,62.928,18.144,61.632,18,61.632,18,60.912,17.856,60.912,17.856,57.456,18,57.456,18,44.208" stroke="none" fill="black"/>
    <polygon  stroke-width="0" points="24.048,44.208,24.048,57.6,25.056,57.6,25.056,57.744,25.632,57.744,25.632,57.888,25.92,57.888,25.92,58.032,26.208,58.032,26.208,58.176,26.496,58.176,26.496,58.32,26.64,58.32,26.64,58.464,26.784,58.464,26.784,58.608,26.928,58.608,26.928,58.752,27.072,58.752,27.072,59.04,27.216,59.04,27.216,59.184,27.36,59.184,27.36,59.472,27.504,59.472,27.504,60.048,27.648,60.048,27.648,62.928,46.512,62.928,46.512,63.072,47.376,63.072,47.376,63.216,47.808,63.216,47.808,63.36,48.24,63.36,48.24,63.504,48.528,63.504,48.528,63.648,48.672,63.648,48.672,63.792,48.96,63.792,48.96,63.936,49.104,63.936,49.104,64.08,49.392,64.08,49.392,64.224,49.536,64.224,49.536,64.368,49.68,64.368,49.68,64.512,49.824,64.512,49.824,64.656,49.968,64.656,49.968,64.944,50.112,64.944,50.112,65.088,50.256,65.088,50.256,65.376,50.4,65.376,50.4,65.52,50.544,65.52,50.544,65.808,50.688,65.808,50.688,66.24,50.832,66.24,50.832,66.672,50.976,66.672,50.976,67.68,51.12,67.68,51.12,67.968,50.976,67.968,50.976,68.976,50.832,68.976,50.832,69.552,50.688,69.552,50.688,69.84,50.544,69.84,50.544,70.128,50.4,70.128,50.4,70.416,50.256,70.416,50.256,70.56,50.112,70.56,50.112,72,57.6,72,57.6,72.144,58.032,72.144,58.032,72.288,58.32,72.288,58.32,72.432,58.608,72.432,58.608,72.576,58.752,72.576,58.752,72.72,58.896,72.72,58.896,72.864,59.04,72.864,59.04,73.008,59.184,73.008,59.184,73.152,59.328,73.152,59.328,73.296,59.472,73.296,59.472,73.584,59.616,73.584,59.616,73.872,59.76,73.872,59.76,74.304,61.2,74.304,61.2,44.208" stroke="none" fill="black"/>
    <polygon  stroke-width="0" points="67.248,44.208,67.248,59.328,72.432,59.328,72.432,59.472,73.008,59.472,73.008,59.616,73.296,59.616,73.296,59.76,73.584,59.76,73.584,59.904,73.872,59.904,73.872,60.048,74.16,60.048,74.16,60.192,74.304,60.192,74.304,60.336,74.592,60.336,74.592,60.48,74.736,60.48,74.736,60.624,74.88,60.624,74.88,60.768,75.024,60.768,75.024,60.912,75.168,60.912,75.168,61.2,75.312,61.2,75.312,61.344,75.456,61.344,75.456,61.488,75.6,61.488,75.6,61.776,75.744,61.776,75.744,62.064,75.888,62.064,75.888,62.352,76.032,62.352,76.032,62.64,76.176,62.64,76.176,63.216,76.32,63.216,76.32,65.232,76.176,65.232,76.176,65.808,76.032,65.808,76.032,66.24,75.888,66.24,75.888,66.528,75.744,66.528,75.744,66.672,75.6,66.672,75.6,66.96,75.456,66.96,75.456,67.104,75.312,67.104,75.312,68.544,75.456,68.544,75.456,68.688,75.6,68.688,75.6,68.976,75.744,68.976,75.744,69.264,75.888,69.264,75.888,69.552,76.032,69.552,76.032,69.84,76.176,69.84,76.176,70.416,76.32,70.416,76.32,72.432,76.176,72.432,76.176,73.008,76.032,73.008,76.032,73.44,75.888,73.44,75.888,73.728,75.744,73.728,75.744,73.872,75.6,73.872,75.6,74.16,75.456,74.16,75.456,74.304,75.312,74.304,75.312,75.744,75.456,75.744,75.456,75.888,75.6,75.888,75.6,76.176,75.744,76.176,75.744,76.464,75.888,76.464,75.888,76.752,76.032,76.752,76.032,77.04,76.176,77.04,76.176,77.616,76.32,77.616,76.32,79.632,76.176,79.632,76.176,80.208,76.032,80.208,76.032,80.64,75.888,80.64,75.888,80.928,75.744,80.928,75.744,81.072,75.6,81.072,75.6,81.36,75.456,81.36,75.456,81.504,75.312,81.504,75.312,82.944,75.456,82.944,75.456,83.088,75.6,83.088,75.6,83.376,75.744,83.376,75.744,83.664,75.888,83.664,75.888,83.952,76.032,83.952,76.032,84.24,76.176,84.24,76.176,84.816,76.32,84.816,76.32,86.832,76.176,86.832,76.176,87.408,76.032,87.408,76.032,87.84,75.888,87.84,75.888,88.128,75.744,88.128,75.744,88.272,75.6,88.272,75.6,88.56,75.456,88.56,75.456,88.704,75.312,88.704,75.312,90.144,75.456,90.144,75.456,90.288,75.6,90.288,75.6,90.576,75.744,90.576,75.744,90.864,75.888,90.864,75.888,91.152,76.032,91.152,76.032,91.44,76.176,91.44,76.176,92.016,76.32,92.016,76.32,94.032,76.176,94.032,76.176,94.608,76.032,94.608,76.032,95.04,75.888,95.04,75.888,95.328,75.744,95.328,75.744,95.472,75.6,95.472,75.6,95.76,75.456,95.76,75.456,95.904,75.312,95.904,75.312,97.344,75.456,97.344,75.456,97.488,75.6,97.488,75.6,97.776,75.744,97.776,75.744,98.064,75.888,98.064,75.888,98.352,76.032,98.352,76.032,98.64,76.176,98.64,76.176,99.216,76.32,99.216,76.32,101.232,76.176,101.232,76.176,101.808,76.032,101.808,76.032,102.24,75.888,102.24,75.888,102.528,75.744,102.528,75.744,102.672,75.6,102.672,75.6,102.96,75.456,102.96,75.456,103.104,75.312,103.104,75.312,104.544,75.456,104.544,75.456,104.688,75.6,104.688,75.6,104.976,75.744,104.976,75.744,105.264,75.888,105.264,75.888,105.552,76.032,105.552,76.032,105.84,76.176,105.84,76.176,106.416,76.32,106.416,76.32,108.432,76.176,108.432,76.176,109.008,76.032,109.008,76.032,109.44,75.888,109.44,75.888,109.728,75.744,109.728,75.744,109.872,75.6,109.872,75.6,110.16,75.456,110.16,75.456,110.304,75.312,110.304,75.312,111.744,75.456,111.744,75.456,111.888,75.6,111.888,75.6,112.176,75.744,112.176,75.744,112.464,75.888,112.464,75.888,112.752,76.032,112.752,76.032,113.04,76.176,113.04,76.176,113.616,76.32,113.616,76.32,115.632,76.176,115.632,76.176,116.208,76.032,116.208,76.032,116.64,75.888,116.64,75.888,116.928,75.744,116.928,75.744,117.072,75.6,117.072,75.6,117.36,75.456,117.36,75.456,117.504,75.312,117.504,75.312,117.792,75.168,117.792,75.168,117.936,75.024,117.936,75.024,118.08,74.88,118.08,74.88,118.224,74.736,118.224,74.736,118.368,74.592,118.368,74.592,118.512,74.448,118.512,74.448,118.656,74.16,118.656,74.16,118.8,74.016,118.8,74.016,118.944,73.728,118.944,73.728,119.088,73.44,119.088,73.44,119.232,73.008,119.232,73.008,119.376,72.576,119.376,72.576,119.52,71.568,119.52,71.568,119.664,78.624,119.664,78.624,44.208" stroke="none" fill="black"/>
    <polygon  stroke-width="0" points="0,59.328,0,119.664,6.336,119.664,6.336,119.52,5.328,119.52,5.328,119.376,4.896,119.376,4.896,119.232,4.608,119.232,4.608,119.088,4.32,119.088,4.32,118.944,4.032,118.944,4.032,118.8,3.744,118.8,3.744,118.656,3.6,118.656,3.6,118.512,3.456,118.512,3.456,118.368,3.312,118.368,3.312,118.224,3.024,118.224,3.024,117.936,2.88,117.936,2.88,117.792,2.736,117.792,2.736,117.648,2.592,117.648,2.592,117.504,2.448,117.504,2.448,117.216,2.304,117.216,2.304,116.928,2.16,116.928,2.16,116.64,2.016,116.64,2.016,116.352,1.872,116.352,1.872,115.92,1.728,115.92,1.728,115.056,1.584,115.056,1.584,114.336,1.728,114.336,1.728,113.472,1.872,113.472,1.872,112.896,2.016,112.896,2.016,112.608,2.16,112.608,2.16,112.32,2.304,112.32,2.304,112.032,2.448,112.032,2.448,111.888,2.592,111.888,2.592,110.304,2.448,110.304,2.448,110.016,2.304,110.016,2.304,109.728,2.16,109.728,2.16,109.44,2.016,109.44,2.016,109.152,1.872,109.152,1.872,108.72,1.728,108.72,1.728,107.856,1.584,107.856,1.584,107.136,1.728,107.136,1.728,106.272,1.872,106.272,1.872,105.696,2.016,105.696,2.016,105.408,2.16,105.408,2.16,105.12,2.304,105.12,2.304,104.832,2.448,104.832,2.448,104.688,2.592,104.688,2.592,103.104,2.448,103.104,2.448,102.816,2.304,102.816,2.304,102.528,2.16,102.528,2.16,102.24,2.016,102.24,2.016,101.952,1.872,101.952,1.872,101.52,1.728,101.52,1.728,100.656,1.584,100.656,1.584,99.936,1.728,99.936,1.728,99.072,1.872,99.072,1.872,98.496,2.016,98.496,2.016,98.208,2.16,98.208,2.16,97.92,2.304,97.92,2.304,97.632,2.448,97.632,2.448,97.488,2.592,97.488,2.592,95.904,2.448,95.904,2.448,95.616,2.304,95.616,2.304,95.328,2.16,95.328,2.16,95.04,2.016,95.04,2.016,94.752,1.872,94.752,1.872,94.32,1.728,94.32,1.728,93.456,1.584,93.456,1.584,92.736,1.728,92.736,1.728,91.872,1.872,91.872,1.872,91.296,2.016,91.296,2.016,91.008,2.16,91.008,2.16,90.72,2.304,90.72,2.304,90.432,2.448,90.432,2.448,90.288,2.592,90.288,2.592,88.704,2.448,88.704,2.448,88.416,2.304,88.416,2.304,88.128,2.16,88.128,2.16,87.84,2.016,87.84,2.016,87.552,1.872,87.552,1.872,87.12,1.728,87.12,1.728,86.256,1.584,86.256,1.584,85.536,1.728,85.536,1.728,84.672,1.872,84.672,1.872,84.096,2.016,84.096,2.016,83.808,2.16,83.808,2.16,83.52,2.304,83.52,2.304,83.232,2.448,83.232,2.448,83.088,2.592,83.088,2.592,81.504,2.448,81.504,2.448,81.216,2.304,81.216,2.304,80.928,2.16,80.928,2.16,80.64,2.016,80.64,2.016,80.352,1.872,80.352,1.872,79.92,1.728,79.92,1.728,79.056,1.584,79.056,1.584,78.336,1.728,78.336,1.728,77.472,1.872,77.472,1.872,76.896,2.016,76.896,2.016,76.608,2.16,76.608,2.16,76.32,2.304,76.32,2.304,76.032,2.448,76.032,2.448,75.888,2.592,75.888,2.592,74.304,2.448,74.304,2.448,74.016,2.304,74.016,2.304,73.728,2.16,73.728,2.16,73.44,2.016,73.44,2.016,73.152,1.872,73.152,1.872,72.72,1.728,72.72,1.728,71.856,1.584,71.856,1.584,71.136,1.728,71.136,1.728,70.272,1.872,70.272,1.872,69.696,2.016,69.696,2.016,69.408,2.16,69.408,2.16,69.12,2.304,69.12,2.304,68.832,2.448,68.832,2.448,68.688,2.592,68.688,2.592,67.104,2.448,67.104,2.448,66.816,2.304,66.816,2.304,66.528,2.16,66.528,2.16,66.24,2.016,66.24,2.016,65.952,1.872,65.952,1.872,65.52,1.728,65.52,1.728,64.656,1.584,64.656,1.584,63.936,1.728,63.936,1.728,63.072,1.872,63.072,1.872,62.496,2.016,62.496,2.016,62.208,2.16,62.208,2.16,61.92,2.304,61.92,2.304,61.632,2.448,61.632,2.448,61.488,2.592,61.488,2.592,61.2,2.736,61.2,2.736,61.056,2.88,61.056,2.88,60.912,3.024,60.912,3.024,60.768,3.168,60.768,3.168,60.624,3.312,60.624,3.312,60.48,3.456,60.48,3.456,60.336,3.6,60.336,3.6,60.192,3.888,60.192,3.888,60.048,4.032,60.048,4.032,59.904,4.32,59.904,4.32,59.76,4.608,59.76,4.608,59.616,5.04,59.616,5.04,59.472,5.616,59.472,5.616,59.328" stroke="none" fill="black"/>
    <polygon  stroke-width="0" points="67.248,59.328,67.248,60.192,68.688,60.192,68.688,60.048,68.832,60.048,68.832,59.904,69.12,59.904,69.12,59.76,69.408,59.76,69.408,59.616,69.84,59.616,69.84,59.472,70.416,59.472,70.416,59.328" stroke="none" fill="black"/>
    <polygon  stroke-width="0" points="27.648,62.928,27.648,91.728,46.512,91.728,46.512,91.872,47.376,91.872,47.376,92.016,47.808,92.016,47.808,92.16,48.24,92.16,48.24,92.304,48.528,92.304,48.528,92.448,48.672,92.448,48.672,92.592,48.96,92.592,48.96,92.736,50.4,92.736,50.4,88.848,35.136,88.848,35.136,88.704,34.416,88.704,34.416,88.56,33.984,88.56,33.984,88.416,33.84,88.416,33.84,88.272,33.552,88.272,33.552,88.128,33.408,88.128,33.408,87.984,33.264,87.984,33.264,87.84,33.12,87.84,33.12,87.696,32.976,87.696,32.976,87.552,32.832,87.552,32.832,87.264,32.688,87.264,32.688,87.12,32.544,87.12,32.544,86.688,32.4,86.688,32.4,86.112,32.256,86.112,32.256,79.776,32.4,79.776,32.4,71.568,32.256,71.568,32.256,71.424,31.968,71.424,31.968,71.28,31.824,71.28,31.824,70.992,31.68,70.992,31.68,70.848,31.536,70.848,31.536,70.704,31.392,70.704,31.392,70.416,31.248,70.416,31.248,70.272,31.104,70.272,31.104,69.984,30.96,69.984,30.96,69.696,30.816,69.696,30.816,69.264,30.672,69.264,30.672,68.544,30.528,68.544,30.528,67.104,30.672,67.104,30.672,66.384,30.816,66.384,30.816,66.096,30.96,66.096,30.96,65.664,31.104,65.664,31.104,65.52,31.248,65.52,31.248,65.232,31.392,65.232,31.392,64.944,31.536,64.944,31.536,64.8,31.68,64.8,31.68,64.656,31.824,64.656,31.824,64.512,31.968,64.512,31.968,64.368,32.112,64.368,32.112,64.224,32.256,64.224,32.256,64.08,32.4,64.08,32.4,63.936,32.688,63.936,32.688,63.792,32.832,63.792,32.832,63.648,33.12,63.648,33.12,63.504,33.408,63.504,33.408,63.36,33.696,63.36,33.696,63.216,34.128,63.216,34.128,63.072,35.136,63.072,35.136,62.928" stroke="none" fill="black"/>
    <polygon  stroke-width="0" points="35.712,62.928,35.712,63.072,36.576,63.072,36.576,63.216,37.008,63.216,37.008,63.36,37.44,63.36,37.44,63.504,37.728,63.504,37.728,63.648,37.872,63.648,37.872,63.792,38.16,63.792,38.16,63.936,38.304,63.936,38.304,64.08,38.592,64.08,38.592,64.224,38.736,64.224,38.736,64.368,38.88,64.368,38.88,64.512,39.024,64.512,39.024,64.656,39.168,64.656,39.168,64.944,39.312,64.944,39.312,65.088,39.456,65.088,39.456,65.376,39.6,65.376,39.6,65.52,39.744,65.52,39.744,65.808,39.888,65.808,39.888,66.24,40.032,66.24,40.032,66.672,41.472,66.672,41.472,66.384,41.616,66.384,41.616,66.096,41.76,66.096,41.76,65.664,41.904,65.664,41.904,65.52,42.048,65.52,42.048,65.232,42.192,65.232,42.192,64.944,42.336,64.944,42.336,64.8,42.48,64.8,42.48,64.656,42.624,64.656,42.624,64.512,42.768,64.512,42.768,64.368,42.912,64.368,42.912,64.224,43.056,64.224,43.056,64.08,43.2,64.08,43.2,63.936,43.488,63.936,43.488,63.792,43.632,63.792,43.632,63.648,43.92,63.648,43.92,63.504,44.208,63.504,44.208,63.36,44.496,63.36,44.496,63.216,44.928,63.216,44.928,63.072,45.936,63.072,45.936,62.928" stroke="none" fill="black"/>
    <polygon  stroke-width="0" points="20.16,71.712,20.16,71.856,20.016,71.856,20.016,72,19.728,72,19.728,72.144,19.44,72.144,19.44,72.288,19.152,72.288,19.152,72.432,18.72,72.432,18.72,72.576,18.144,72.576,18.144,72.72,21.6,72.72,21.6,71.712" stroke="none" fill="black"/>
    <polygon  stroke-width="0" points="11.376,72.72,11.376,72.864,21.6,72.864,21.6,72.72" stroke="none" fill="black"/>
    <polygon  stroke-width="0" points="11.376,72.72,11.376,72.864,21.6,72.864,21.6,72.72" stroke="none" fill="black"/>
    <polygon  stroke-width="0" points="11.376,72.864,11.376,73.008,11.232,73.008,11.232,73.44,11.088,73.44,11.088,73.728,10.944,73.728,10.944,73.872,10.8,73.872,10.8,74.16,10.656,74.16,10.656,74.304,10.512,74.304,10.512,75.744,10.656,75.744,10.656,75.888,10.8,75.888,10.8,76.176,10.944,76.176,10.944,76.464,11.088,76.464,11.088,76.752,11.232,76.752,11.232,77.04,11.376,77.04,11.376,77.616,11.52,77.616,11.52,79.632,11.376,79.632,11.376,80.208,11.232,80.208,11.232,80.64,11.088,80.64,11.088,80.928,10.944,80.928,10.944,81.072,10.8,81.072,10.8,81.36,10.656,81.36,10.656,81.504,10.512,81.504,10.512,82.944,10.656,82.944,10.656,83.088,10.8,83.088,10.8,83.376,10.944,83.376,10.944,83.664,11.088,83.664,11.088,83.952,11.232,83.952,11.232,84.24,11.376,84.24,11.376,84.816,11.52,84.816,11.52,86.832,11.376,86.832,11.376,87.408,11.232,87.408,11.232,87.84,11.088,87.84,11.088,88.128,10.944,88.128,10.944,88.272,10.8,88.272,10.8,88.56,10.656,88.56,10.656,88.704,10.512,88.704,10.512,90.144,10.656,90.144,10.656,90.288,10.8,90.288,10.8,90.576,10.944,90.576,10.944,90.864,11.088,90.864,11.088,91.152,11.232,91.152,11.232,91.44,11.376,91.44,11.376,91.728,17.712,91.728,17.712,91.872,18.576,91.872,18.576,92.016,19.008,92.016,19.008,92.16,19.44,92.16,19.44,92.304,19.728,92.304,19.728,92.448,19.872,92.448,19.872,92.592,20.16,92.592,20.16,92.736,21.6,92.736,21.6,72.864" stroke="none" fill="black"/>
    <polygon  stroke-width="0" points="11.376,91.728,11.376,92.016,11.52,92.016,11.52,94.032,11.376,94.032,11.376,94.608,11.232,94.608,11.232,95.04,11.088,95.04,11.088,95.328,10.944,95.328,10.944,95.472,10.8,95.472,10.8,95.76,10.656,95.76,10.656,95.904,10.512,95.904,10.512,97.344,10.656,97.344,10.656,97.488,10.8,97.488,10.8,97.776,10.944,97.776,10.944,98.064,11.088,98.064,11.088,98.352,11.232,98.352,11.232,98.64,11.376,98.64,11.376,99.216,11.52,99.216,11.52,101.232,11.376,101.232,11.376,101.52,16.704,101.52,16.704,101.376,15.984,101.376,15.984,101.232,15.552,101.232,15.552,101.088,15.264,101.088,15.264,100.944,14.976,100.944,14.976,100.8,14.832,100.8,14.832,100.656,14.544,100.656,14.544,100.512,14.4,100.512,14.4,100.368,14.256,100.368,14.256,100.224,13.968,100.224,13.968,100.08,13.824,100.08,13.824,99.792,13.68,99.792,13.68,99.648,13.536,99.648,13.536,99.504,13.392,99.504,13.392,99.216,13.248,99.216,13.248,99.072,13.104,99.072,13.104,98.784,12.96,98.784,12.96,98.496,12.816,98.496,12.816,98.064,12.672,98.064,12.672,97.344,12.528,97.344,12.528,95.904,12.672,95.904,12.672,95.184,12.816,95.184,12.816,94.896,12.96,94.896,12.96,94.464,13.104,94.464,13.104,94.32,13.248,94.32,13.248,94.032,13.392,94.032,13.392,93.744,13.536,93.744,13.536,93.6,13.68,93.6,13.68,93.456,13.824,93.456,13.824,93.312,13.968,93.312,13.968,93.168,14.112,93.168,14.112,93.024,14.256,93.024,14.256,92.88,14.4,92.88,14.4,92.736,14.688,92.736,14.688,92.592,14.832,92.592,14.832,92.448,15.12,92.448,15.12,92.304,15.408,92.304,15.408,92.16,15.696,92.16,15.696,92.016,16.128,92.016,16.128,91.872,17.136,91.872,17.136,91.728" stroke="none" fill="black"/>
    <polygon  stroke-width="0" points="27.648,91.728,27.648,101.52,34.704,101.52,34.704,101.376,33.984,101.376,33.984,101.232,33.552,101.232,33.552,101.088,33.264,101.088,33.264,100.944,32.976,100.944,32.976,100.8,32.832,100.8,32.832,100.656,32.544,100.656,32.544,100.512,32.4,100.512,32.4,100.368,32.256,100.368,32.256,100.224,31.968,100.224,31.968,100.08,31.824,100.08,31.824,99.792,31.68,99.792,31.68,99.648,31.536,99.648,31.536,99.504,31.392,99.504,31.392,99.216,31.248,99.216,31.248,99.072,31.104,99.072,31.104,98.784,30.96,98.784,30.96,98.496,30.816,98.496,30.816,98.064,30.672,98.064,30.672,97.344,30.528,97.344,30.528,95.904,30.672,95.904,30.672,95.184,30.816,95.184,30.816,94.896,30.96,94.896,30.96,94.464,31.104,94.464,31.104,94.32,31.248,94.32,31.248,94.032,31.392,94.032,31.392,93.744,31.536,93.744,31.536,93.6,31.68,93.6,31.68,93.456,31.824,93.456,31.824,93.312,31.968,93.312,31.968,93.168,32.112,93.168,32.112,93.024,32.256,93.024,32.256,92.88,32.4,92.88,32.4,92.736,32.688,92.736,32.688,92.592,32.832,92.592,32.832,92.448,33.12,92.448,33.12,92.304,33.408,92.304,33.408,92.16,33.696,92.16,33.696,92.016,34.128,92.016,34.128,91.872,35.136,91.872,35.136,91.728" stroke="none" fill="black"/>
    <polygon  stroke-width="0" points="35.712,91.728,35.712,91.872,36.576,91.872,36.576,92.016,37.008,92.016,37.008,92.16,37.44,92.16,37.44,92.304,37.728,92.304,37.728,92.448,37.872,92.448,37.872,92.592,38.16,92.592,38.16,92.736,38.304,92.736,38.304,92.88,38.592,92.88,38.592,93.024,38.736,93.024,38.736,93.168,38.88,93.168,38.88,93.312,39.024,93.312,39.024,93.456,39.168,93.456,39.168,93.744,39.312,93.744,39.312,93.888,39.456,93.888,39.456,94.176,39.6,94.176,39.6,94.32,39.744,94.32,39.744,94.608,39.888,94.608,39.888,95.04,40.032,95.04,40.032,95.472,41.472,95.472,41.472,95.184,41.616,95.184,41.616,94.896,41.76,94.896,41.76,94.464,41.904,94.464,41.904,94.32,42.048,94.32,42.048,94.032,42.192,94.032,42.192,93.744,42.336,93.744,42.336,93.6,42.48,93.6,42.48,93.456,42.624,93.456,42.624,93.312,42.768,93.312,42.768,93.168,42.912,93.168,42.912,93.024,43.056,93.024,43.056,92.88,43.2,92.88,43.2,92.736,43.488,92.736,43.488,92.592,43.632,92.592,43.632,92.448,43.92,92.448,43.92,92.304,44.208,92.304,44.208,92.16,44.496,92.16,44.496,92.016,44.928,92.016,44.928,91.872,45.936,91.872,45.936,91.728" stroke="none" fill="black"/>
    <polygon  stroke-width="0" points="40.032,97.776,40.032,98.352,39.888,98.352,39.888,98.64,39.744,98.64,39.744,98.928,39.6,98.928,39.6,99.216,39.456,99.216,39.456,99.36,39.312,99.36,39.312,99.648,39.168,99.648,39.168,99.792,39.024,99.792,39.024,99.936,38.88,99.936,38.88,100.08,38.736,100.08,38.736,100.224,38.592,100.224,38.592,100.368,38.448,100.368,38.448,100.512,38.16,100.512,38.16,100.656,38.016,100.656,38.016,100.8,37.728,100.8,37.728,100.944,37.44,100.944,37.44,101.088,37.152,101.088,37.152,101.232,36.72,101.232,36.72,101.376,36.144,101.376,36.144,101.52,45.504,101.52,45.504,101.376,44.784,101.376,44.784,101.232,44.352,101.232,44.352,101.088,44.064,101.088,44.064,100.944,43.776,100.944,43.776,100.8,43.632,100.8,43.632,100.656,43.344,100.656,43.344,100.512,43.2,100.512,43.2,100.368,43.056,100.368,43.056,100.224,42.768,100.224,42.768,100.08,42.624,100.08,42.624,99.792,42.48,99.792,42.48,99.648,42.336,99.648,42.336,99.504,42.192,99.504,42.192,99.216,42.048,99.216,42.048,99.072,41.904,99.072,41.904,98.784,41.76,98.784,41.76,98.496,41.616,98.496,41.616,98.064,41.472,98.064,41.472,97.776" stroke="none" fill="black"/>
    <polygon  stroke-width="0" points="20.16,100.512,20.16,100.656,20.016,100.656,20.016,100.8,19.728,100.8,19.728,100.944,19.44,100.944,19.44,101.088,19.152,101.088,19.152,101.232,18.72,101.232,18.72,101.376,18.144,101.376,18.144,101.52,21.6,101.52,21.6,100.512" stroke="none" fill="black"/>
    <polygon  stroke-width="0" points="48.96,100.512,48.96,100.656,48.816,100.656,48.816,100.8,48.528,100.8,48.528,100.944,48.24,100.944,48.24,101.088,47.952,101.088,47.952,101.232,47.52,101.232,47.52,101.376,46.944,101.376,46.944,101.52,50.544,101.52,50.544,101.088,50.4,101.088,50.4,100.512" stroke="none" fill="black"/>
    <polygon  stroke-width="0" points="11.376,101.52,11.376,101.664,21.6,101.664,21.6,101.52" stroke="none" fill="black"/>
    <polygon  stroke-width="0" points="11.376,101.52,11.376,101.664,21.6,101.664,21.6,101.52" stroke="none" fill="black"/>
    <polygon  stroke-width="0" points="27.648,101.52,27.648,101.664,50.688,101.664,50.688,101.52" stroke="none" fill="black"/>
    <polygon  stroke-width="0" points="27.648,101.52,27.648,101.664,50.688,101.664,50.688,101.52" stroke="none" fill="black"/>
    <polygon  stroke-width="0" points="27.648,101.52,27.648,101.664,50.688,101.664,50.688,101.52" stroke="none" fill="black"/>
    <polygon  stroke-width="0" points="11.376,101.664,11.376,101.808,11.232,101.808,11.232,102.24,11.088,102.24,11.088,102.528,10.944,102.528,10.944,102.672,10.8,102.672,10.8,102.96,10.656,102.96,10.656,103.104,10.512,103.104,10.512,104.544,10.656,104.544,10.656,104.688,10.8,104.688,10.8,104.976,10.944,104.976,10.944,105.264,11.088,105.264,11.088,105.552,11.232,105.552,11.232,105.84,11.376,105.84,11.376,106.416,11.52,106.416,11.52,108.432,11.376,108.432,11.376,109.008,11.232,109.008,11.232,109.44,11.088,109.44,11.088,109.728,10.944,109.728,10.944,109.872,10.8,109.872,10.8,110.16,10.656,110.16,10.656,111.6,18.864,111.6,18.864,111.744,21.6,111.744,21.6,101.664" stroke="none" fill="black"/>
    <polygon  stroke-width="0" points="27.648,101.664,27.648,115.344,27.504,115.344,27.504,115.92,27.36,115.92,27.36,116.208,27.216,116.208,27.216,116.352,27.072,116.352,27.072,116.64,26.928,116.64,26.928,116.784,26.784,116.784,26.784,116.928,26.64,116.928,26.64,117.072,26.496,117.072,26.496,117.216,26.208,117.216,26.208,117.36,25.92,117.36,25.92,117.504,25.632,117.504,25.632,117.648,25.056,117.648,25.056,117.792,67.536,117.792,67.536,117.648,67.392,117.648,67.392,117.504,67.248,117.504,67.248,117.216,67.104,117.216,67.104,116.928,66.96,116.928,66.96,116.64,66.816,116.64,66.816,116.352,66.672,116.352,66.672,115.92,66.528,115.92,66.528,115.056,66.384,115.056,66.384,114.336,66.528,114.336,66.528,113.472,66.672,113.472,66.672,112.896,66.816,112.896,66.816,112.608,66.96,112.608,66.96,112.32,67.104,112.32,67.104,112.032,67.248,112.032,67.248,111.888,67.392,111.888,67.392,110.304,67.248,110.304,67.248,110.016,67.104,110.016,67.104,109.728,66.96,109.728,66.96,109.44,66.816,109.44,66.816,109.152,66.672,109.152,66.672,108.72,66.528,108.72,66.528,107.856,66.384,107.856,66.384,107.136,66.528,107.136,66.528,106.272,66.672,106.272,66.672,105.696,66.816,105.696,66.816,105.408,66.96,105.408,66.96,105.12,67.104,105.12,67.104,104.832,67.248,104.832,67.248,104.688,67.392,104.688,67.392,103.248,52.704,103.248,52.704,103.104,52.272,103.104,52.272,102.96,51.984,102.96,51.984,102.816,51.696,102.816,51.696,102.672,51.552,102.672,51.552,102.528,51.264,102.528,51.264,102.384,51.12,102.384,51.12,102.24,50.976,102.24,50.976,101.952,50.832,101.952,50.832,101.808,50.688,101.808,50.688,101.664" stroke="none" fill="black"/>
    <polygon  stroke-width="0" points="10.512,117.648,10.512,117.792,18.72,117.792,18.72,117.648" stroke="none" fill="black"/>
    <polygon  stroke-width="0" points="10.368,117.792,10.368,117.936,67.68,117.936,67.68,117.792" stroke="none" fill="black"/>
    <polygon  stroke-width="0" points="10.368,117.792,10.368,117.936,67.68,117.936,67.68,117.792" stroke="none" fill="black"/>
    <polygon  stroke-width="0" points="10.224,117.936,10.224,118.08,10.08,118.08,10.08,118.224,9.936,118.224,9.936,118.368,9.792,118.368,9.792,118.512,9.648,118.512,9.648,118.656,9.36,118.656,9.36,118.8,9.216,118.8,9.216,118.944,8.928,118.944,8.928,119.088,8.64,119.088,8.64,119.232,8.208,119.232,8.208,119.376,7.776,119.376,7.776,119.52,6.768,119.52,6.768,119.664,71.136,119.664,71.136,119.52,70.128,119.52,70.128,119.376,69.696,119.376,69.696,119.232,69.408,119.232,69.408,119.088,69.12,119.088,69.12,118.944,68.832,118.944,68.832,118.8,68.544,118.8,68.544,118.656,68.4,118.656,68.4,118.512,68.256,118.512,68.256,118.368,68.112,118.368,68.112,118.224,67.824,118.224,67.824,117.936" stroke="none" fill="black"/>
    <polygon  stroke-width="0" points="0,119.664,0,119.808,78.624,119.808,78.624,119.664" stroke="none" fill="black"/>
    <polygon  stroke-width="0" points="0,119.664,0,119.808,78.624,119.808,78.624,119.664" stroke="none" fill="black"/>
    <polygon  stroke-width="0" points="0,119.664,0,119.808,78.624,119.808,78.624,119.664" stroke="none" fill="black"/>
    <polygon  stroke-width="0" points="0,119.808,0,129.6,76.176,129.6,76.176,129.744,76.752,129.744,76.752,129.888,78.624,129.888,78.624,119.808" stroke="none" fill="black"/>
    <polygon  stroke-width="0" points="0,129.6,0,129.744,1.728,129.744,1.728,129.6" stroke="none" fill="black"/>
    <polygon  stroke-width="0" points="4.176,129.6,4.176,129.744,4.752,129.744,4.752,129.888,5.328,129.888,5.328,130.032,5.616,130.032,5.616,130.176,5.904,130.176,5.904,130.32,6.192,130.32,6.192,130.464,6.48,130.464,6.48,130.608,6.768,130.608,6.768,130.752,6.912,130.752,6.912,130.896,7.056,130.896,7.056,131.04,7.344,131.04,7.344,131.184,7.488,131.184,7.488,131.328,7.632,131.328,7.632,131.472,7.776,131.472,7.776,131.616,7.92,131.616,7.92,131.76,8.064,131.76,8.064,131.904,8.208,131.904,8.208,132.192,8.352,132.192,8.352,132.336,8.496,132.336,8.496,132.624,8.64,132.624,8.64,132.768,8.784,132.768,8.784,133.056,8.928,133.056,8.928,133.344,9.072,133.344,9.072,133.632,9.216,133.632,9.216,133.92,9.36,133.92,9.36,134.496,9.504,134.496,9.504,135.072,9.648,135.072,9.648,137.376,9.504,137.376,9.504,139.392,68.544,139.392,68.544,137.664,68.4,137.664,68.4,136.656,68.256,136.656,68.256,135.792,68.4,135.792,68.4,134.784,68.544,134.784,68.544,134.208,68.688,134.208,68.688,133.776,68.832,133.776,68.832,133.488,68.976,133.488,68.976,133.2,69.12,133.2,69.12,132.912,69.264,132.912,69.264,132.624,69.408,132.624,69.408,132.48,69.552,132.48,69.552,132.336,69.696,132.336,69.696,132.048,69.84,132.048,69.84,131.904,69.984,131.904,69.984,131.76,70.128,131.76,70.128,131.616,70.272,131.616,70.272,131.472,70.416,131.472,70.416,131.328,70.56,131.328,70.56,131.184,70.704,131.184,70.704,131.04,70.848,131.04,70.848,130.896,71.136,130.896,71.136,130.752,71.28,130.752,71.28,130.608,71.568,130.608,71.568,130.464,71.712,130.464,71.712,130.32,72,130.32,72,130.176,72.288,130.176,72.288,130.032,72.72,130.032,72.72,129.888,73.152,129.888,73.152,129.744,73.728,129.744,73.728,129.6" stroke="none" fill="black"/>
    <g  id="connector0pad">
     <circle  stroke-width="0" stroke="none" r="2.7" fill="black" cx="14.1411" cy="4.1535"/>
    </g>
   </g>
  </g>
 </g>
 <g partID="854796820">
  <g transform="translate(41.184,71.856)">
   <g  id="groundplane">
    <g  id="connector0pad">
     <polygon  stroke-width="0" points="1.728,0,1.728,0.576,1.584,0.576,1.584,0.864,1.44,0.864,1.44,1.152,1.296,1.152,1.296,1.44,1.152,1.44,1.152,1.584,1.008,1.584,1.008,1.872,0.864,1.872,0.864,2.016,0.72,2.016,0.72,2.16,0.576,2.16,0.576,2.304,0.432,2.304,0.432,2.448,0.288,2.448,0.288,2.592,0.144,2.592,0.144,11.088,0,11.088,0,13.824,15.552,13.824,15.552,9.072,7.344,9.072,7.344,8.928,6.912,8.928,6.912,8.784,6.624,8.784,6.624,8.64,6.336,8.64,6.336,8.496,6.192,8.496,6.192,8.352,5.904,8.352,5.904,8.208,5.76,8.208,5.76,8.064,5.616,8.064,5.616,7.776,5.472,7.776,5.472,7.632,5.328,7.632,5.328,7.344,5.184,7.344,5.184,7.056,5.04,7.056,5.04,6.48,4.896,6.48,4.896,2.592,4.752,2.592,4.752,2.448,4.464,2.448,4.464,2.304,4.32,2.304,4.32,2.016,4.176,2.016,4.176,1.872,4.032,1.872,4.032,1.728,3.888,1.728,3.888,1.44,3.744,1.44,3.744,1.296,3.6,1.296,3.6,1.008,3.456,1.008,3.456,0.72,3.312,0.72,3.312,0.288,3.168,0.288,3.168,0" stroke="none" fill="black"/>
    </g>
   </g>
  </g>
 </g>
 <g partID="854796830">
  <g transform="translate(72.504,15.12)">
   <g  id="groundplane">
    <polygon  stroke-width="0" points="0,0,3.24,0,3.24,3.744,0,3.744" stroke="none" fill="black"/>
   </g>
  </g>
 </g>
 <g partID="854796840">
  <g transform="translate(68.976,18.648)">
   <g  id="groundplane">
    <polygon  stroke-width="0" points="0,0,3.744,0,3.744,3.24,0,3.24" stroke="none" fill="black"/>
   </g>
  </g>
 </g>
 <g partID="854796850">
  <g transform="translate(75.456,18.648)">
   <g  id="groundplane">
    <polygon  stroke-width="0" points="0,0,3.744,0,3.744,3.24,0,3.24" stroke="none" fill="black"/>
   </g>
  </g>
 </g>
 <g partID="854796860">
  <g transform="translate(47.304,22.32)">
   <g  id="groundplane">
    <polygon  stroke-width="0" points="0,0,3.24,0,3.24,3.744,0,3.744" stroke="none" fill="black"/>
   </g>
  </g>
 </g>
 <g partID="854796870">
  <g transform="translate(36.504,22.32)">
   <g  id="groundplane">
    <polygon  stroke-width="0" points="0,0,3.24,0,3.24,3.744,0,3.744" stroke="none" fill="black"/>
   </g>
  </g>
 </g>
 <g partID="854796880">
  <g transform="translate(32.976,25.848)">
   <g  id="groundplane">
    <polygon  stroke-width="0" points="0,0,3.744,0,3.744,3.24,0,3.24" stroke="none" fill="black"/>
   </g>
  </g>
 </g>
 <g partID="854796890">
  <g transform="translate(58.104,15.12)">
   <g  id="groundplane">
    <polygon  stroke-width="0" points="0,0,3.24,0,3.24,3.744,0,3.744" stroke="none" fill="black"/>
   </g>
  </g>
 </g>
 <g partID="854796900">
  <g transform="translate(54.576,18.648)">
   <g  id="groundplane">
    <polygon  stroke-width="0" points="0,0,3.744,0,3.744,3.24,0,3.24" stroke="none" fill="black"/>
   </g>
  </g>
 </g>
 <g partID="854796910">
  <g transform="translate(61.056,18.648)">
   <g  id="groundplane">
    <polygon  stroke-width="0" points="0,0,3.744,0,3.744,3.24,0,3.24" stroke="none" fill="black"/>
   </g>
  </g>
 </g>
 <g partID="854796920">
  <g transform="translate(22.104,22.32)">
   <g  id="groundplane">
    <polygon  stroke-width="0" points="0,0,3.24,0,3.24,3.744,0,3.744" stroke="none" fill="black"/>
   </g>
  </g>
 </g>
 <g partID="854796930">
  <g transform="translate(18.576,25.848)">
   <g  id="groundplane">
    <polygon  stroke-width="0" points="0,0,3.744,0,3.744,3.24,0,3.24" stroke="none" fill="black"/>
   </g>
  </g>
 </g>
 <g partID="854796940">
  <g transform="translate(25.056,25.848)">
   <g  id="groundplane">
    <polygon  stroke-width="0" points="0,0,3.744,0,3.744,3.24,0,3.24" stroke="none" fill="black"/>
   </g>
  </g>
 </g>
 <g partID="854796950">
  <g transform="translate(7.704,22.32)">
   <g  id="groundplane">
    <polygon  stroke-width="0" points="0,0,3.24,0,3.24,3.744,0,3.744" stroke="none" fill="black"/>
   </g>
  </g>
 </g>
 <g partID="854796960">
  <g transform="translate(4.176,25.848)">
   <g  id="groundplane">
    <polygon  stroke-width="0" points="0,0,3.744,0,3.744,3.24,0,3.24" stroke="none" fill="black"/>
   </g>
  </g>
 </g>
 <g partID="854796970">
  <g transform="translate(10.656,25.848)">
   <g  id="groundplane">
    <polygon  stroke-width="0" points="0,0,3.744,0,3.744,3.24,0,3.24" stroke="none" fill="black"/>
   </g>
  </g>
 </g>
 <g partID="854796980">
  <g transform="translate(68.976,108.504)">
   <g  id="groundplane">
    <polygon  stroke-width="0" points="0,0,3.744,0,3.744,3.24,0,3.24" stroke="none" fill="black"/>
   </g>
  </g>
 </g>
 <g partID="854796990">
  <g transform="translate(75.456,108.504)">
   <g  id="groundplane">
    <polygon  stroke-width="0" points="0,0,3.744,0,3.744,3.24,0,3.24" stroke="none" fill="black"/>
   </g>
  </g>
 </g>
 <g partID="854781830">
  <g transform="translate(5.59162,46.5255)">
   <g  id="copper0">
    <g  id="copper1">
     <circle  stroke-width="1.5" id="connector0pad" stroke="black" r="2.05" fill="none" cx="3.884" cy="20.6"/>
     <circle  stroke-width="1.5" id="connector1pad" stroke="black" r="2.05" fill="none" cx="3.884" cy="27.8"/>
     <circle  stroke-width="1.5" id="connector2pad" stroke="black" r="2.05" fill="none" cx="3.884" cy="35"/>
     <circle  stroke-width="1.5" id="connector3pad" stroke="black" r="2.05" fill="none" cx="3.884" cy="42.2"/>
     <circle  stroke-width="1.5" id="connector4pad" stroke="black" r="2.05" fill="none" cx="3.884" cy="49.4"/>
     <circle  stroke-width="1.5" id="connector5pad" stroke="black" r="2.05" fill="none" cx="3.884" cy="56.6"/>
     <circle  stroke-width="1.5" id="connector6pad" stroke="black" r="2.05" fill="none" cx="3.884" cy="63.8"/>
     <circle  stroke-width="1.5" id="connector7pad" stroke="black" r="2.05" fill="none" cx="3.884" cy="71"/>
     <circle  stroke-width="1.5" id="connector8pad" stroke="black" r="2.05" fill="none" cx="68.683" cy="71"/>
     <circle  stroke-width="1.5" id="connector9pad" stroke="black" r="2.05" fill="none" cx="68.683" cy="63.8"/>
     <circle  stroke-width="1.5" id="connector10pad" stroke="black" r="2.05" fill="none" cx="68.683" cy="56.6"/>
     <circle  stroke-width="1.5" id="connector11pad" stroke="black" r="2.05" fill="none" cx="68.683" cy="49.4"/>
     <circle  stroke-width="1.5" id="connector12pad" stroke="black" r="2.05" fill="none" cx="68.683" cy="42.2"/>
     <circle  stroke-width="1.5" id="connector13pad" stroke="black" r="2.05" fill="none" cx="68.683" cy="35"/>
     <circle  stroke-width="1.5" id="connector14pad" stroke="black" r="2.05" fill="none" cx="68.683" cy="27.8"/>
     <circle  stroke-width="1.5" id="connector15pad" stroke="black" r="2.05" fill="none" cx="68.683" cy="20.6"/>
    </g>
   </g>
  </g>
 </g>
 <g partID="854785960">
  <g transform="translate(44.0356,22.4855)">
   <g  id="copper0">
    <circle  stroke-width="1.44" id="connector0pin" stroke="black" r="2.088" fill="none" cx="5.04" cy="5.04"/>
    <circle  stroke-width="1.44" id="connector1pin" stroke="black" r="2.088" fill="none" cx="5.04" cy="12.24"/>
   </g>
  </g>
 </g>
 <g partID="854785410">
  <g transform="translate(33.2356,22.4855)">
   <g  id="copper0">
    <circle  stroke-width="1.44" id="connector0pin" stroke="black" r="2.088" fill="none" cx="5.04" cy="5.04"/>
    <circle  stroke-width="1.44" id="connector1pin" stroke="black" r="2.088" fill="none" cx="5.04" cy="12.24"/>
   </g>
  </g>
 </g>
 <g partID="854783490">
  <g transform="translate(54.8356,15.2855)">
   <g  id="copper0">
    <circle  stroke-width="1.44" id="connector0pin" stroke="black" r="2.088" fill="none" cx="5.04" cy="5.04"/>
    <circle  stroke-width="1.44" id="connector1pin" stroke="black" r="2.088" fill="none" cx="5.04" cy="12.24"/>
    <circle  stroke-width="1.44" id="connector2pin" stroke="black" r="2.088" fill="none" cx="5.04" cy="19.44"/>
    <circle  stroke-width="1.44" id="connector3pin" stroke="black" r="2.088" fill="none" cx="5.04" cy="26.64"/>
   </g>
  </g>
 </g>
 <g partID="854783450">
  <g transform="translate(18.8356,22.4855)">
   <g  id="copper0">
    <circle  stroke-width="1.44" id="connector0pin" stroke="black" r="2.088" fill="none" cx="5.04" cy="5.04"/>
    <circle  stroke-width="1.44" id="connector1pin" stroke="black" r="2.088" fill="none" cx="5.04" cy="12.24"/>
    <circle  stroke-width="1.44" id="connector2pin" stroke="black" r="2.088" fill="none" cx="5.04" cy="19.44"/>
   </g>
  </g>
 </g>
 <g partID="854783430">
  <g transform="translate(4.43562,22.4855)">
   <g  id="copper0">
    <circle  stroke-width="1.44" id="connector0pin" stroke="black" r="2.088" fill="none" cx="5.04" cy="5.04"/>
    <circle  stroke-width="1.44" id="connector1pin" stroke="black" r="2.088" fill="none" cx="5.04" cy="12.24"/>
    <circle  stroke-width="1.44" id="connector2pin" stroke="black" r="2.088" fill="none" cx="5.04" cy="19.44"/>
   </g>
  </g>
 </g>
 <g partID="854784360">
  <g transform="translate(23.3716,68.0255)">
   <g transform="matrix(0,1,-1,0,0,0)">
    <g  id="copper0">
     <g  id="copper1">
      <!-- <rect width="55" x="10" y="15.5" fill="none" height="55" stroke="rgb(255, 191, 0)" stroke-width="20" />  -->
      <circle  stroke-width="1.44" id="connector0pin" stroke="black" r="1.98" fill="none" cx="2.7" cy="3.096"/>
      <circle  stroke-width="1.44" id="connector1pin" stroke="black" r="1.98" fill="none" cx="31.5" cy="3.096"/>
     </g>
    </g>
   </g>
  </g>
 </g>
 <g partID="854787560">
  <g transform="translate(41.3716,68.0255)">
   <g transform="matrix(0,1,-1,0,0,0)">
    <g  id="copper0">
     <g  id="copper1">
      <!-- <rect width="55" x="10" y="15.5" fill="none" height="55" stroke="rgb(255, 191, 0)" stroke-width="20" />  -->
      <circle  stroke-width="1.44" id="connector0pin" stroke="black" r="1.98" fill="none" cx="2.7" cy="3.096"/>
      <circle  stroke-width="1.44" id="connector1pin" stroke="black" r="1.98" fill="none" cx="31.5" cy="3.096"/>
     </g>
    </g>
   </g>
  </g>
 </g>
 <g partID="854787590">
  <g transform="translate(52.1716,68.0255)">
   <g transform="matrix(0,1,-1,0,0,0)">
    <g  id="copper0">
     <g  id="copper1">
      <!-- <rect width="55" x="10" y="15.5" fill="none" height="55" stroke="rgb(255, 191, 0)" stroke-width="20" />  -->
      <circle  stroke-width="1.44" id="connector0pin" stroke="black" r="1.98" fill="none" cx="2.7" cy="3.096"/>
      <circle  stroke-width="1.44" id="connector1pin" stroke="black" r="1.98" fill="none" cx="31.5" cy="3.096"/>
     </g>
    </g>
   </g>
  </g>
 </g>
 <g partID="854790680">
  <g transform="translate(71.7402,-0.209902)">
   <g  id="copper0">
    <circle  stroke-width="0" id="nonconn0" stroke="black" r="4.53543" fill="black" cx="6.13543" cy="6.13543"/>
   </g>
  </g>
 </g>
 <g partID="854790730">
  <g transform="translate(-0.259823,-0.209902)">
   <g  id="copper0">
    <circle  stroke-width="0" id="nonconn0" stroke="black" r="4.53543" fill="black" cx="6.13543" cy="6.13543"/>
   </g>
  </g>
 </g>
 <g partID="854790760">
  <g transform="translate(71.7402,132.99)">
   <g  id="copper0">
    <circle  stroke-width="0" id="nonconn0" stroke="black" r="4.53543" fill="black" cx="6.13543" cy="6.13543"/>
   </g>
  </g>
 </g>
 <g partID="854790790">
  <g transform="translate(-0.259826,132.99)">
   <g  id="copper0">
    <circle  stroke-width="0" id="nonconn0" stroke="black" r="4.53543" fill="black" cx="6.13543" cy="6.13543"/>
   </g>
  </g>
 </g>
 <g partID="854790850">
  <g transform="translate(69.2356,15.2855)">
   <g  id="copper0">
    <circle  stroke-width="1.44" id="connector0pin" stroke="black" r="2.088" fill="none" cx="5.04" cy="5.04"/>
    <circle  stroke-width="1.44" id="connector1pin" stroke="black" r="2.088" fill="none" cx="5.04" cy="12.24"/>
    <circle  stroke-width="1.44" id="connector2pin" stroke="black" r="2.088" fill="none" cx="5.04" cy="19.44"/>
    <circle  stroke-width="1.44" id="connector3pin" stroke="black" r="2.088" fill="none" cx="5.04" cy="26.64"/>
   </g>
  </g>
 </g>
 <g partID="854787970">
  <line stroke-width="1.728" stroke-linecap="round" stroke="black" x2="59.785" y1="77.8903" x1="59.785" y2="95.822"/>
 </g>
 <g partID="854788080">
  <line stroke-width="1.728" stroke-linecap="round" stroke="black" x2="72.1746" y1="95.822" x1="59.785" y2="95.9106"/>
 </g>
 <g partID="854787860">
  <line stroke-width="1.728" stroke-linecap="round" stroke="black" x2="59.785" y1="77.8903" x1="49.1511" y2="77.8903"/>
 </g>
 <g partID="854787750">
  <line stroke-width="1.728" stroke-linecap="round" stroke="black" x2="49.1511" y1="72.7854" x1="49.0973" y2="77.8903"/>
 </g>
 <g partID="854788410">
  <line stroke-width="1.728" stroke-linecap="round" stroke="black" x2="56.2906" y1="88.6397" x1="38.2126" y2="88.6397"/>
 </g>
 <g partID="854788520">
  <line stroke-width="1.728" stroke-linecap="round" stroke="black" x2="56.2404" y1="88.6397" x1="56.2906" y2="103.12"/>
 </g>
 <g partID="854788300">
  <line stroke-width="1.728" stroke-linecap="round" stroke="black" x2="72.1746" y1="103.12" x1="56.2404" y2="103.125"/>
 </g>
 <g partID="854788190">
  <line stroke-width="1.728" stroke-linecap="round" stroke="black" x2="38.2126" y1="72.7855" x1="38.2684" y2="88.6397"/>
 </g>
 <g partID="854790040">
  <line stroke-width="1.728" stroke-linecap="round" stroke="black" x2="67.0828" y1="88.7327" x1="67.0828" y2="27.4314"/>
 </g>
 <g partID="854789970">
  <line stroke-width="1.728" stroke-linecap="round" stroke="black" x2="62.0434" y1="27.4314" x1="67.0828" y2="27.4972"/>
 </g>
 <g partID="854789900">
  <line stroke-width="1.728" stroke-linecap="round" stroke="black" x2="67.0828" y1="88.7277" x1="72.1746" y2="88.7327"/>
 </g>
 <g partID="854790420">
  <line stroke-width="1.728" stroke-linecap="round" stroke="black" x2="27.5135" y1="117.601" x1="27.5135" y2="63.5519"/>
 </g>
 <g partID="854790230">
  <line stroke-width="1.728" stroke-linecap="round" stroke="black" x2="27.5135" y1="117.534" x1="11.5756" y2="117.601"/>
 </g>
 <g partID="854783740">
  <line stroke-width="1.728" stroke-linecap="round" stroke="black" x2="11.6436" y1="41.9255" x1="21.7076" y2="41.9255"/>
 </g>
 <g partID="854790940">
  <line stroke-width="1.728" stroke-linecap="round" stroke="black" x2="72.1076" y1="27.5255" x1="62.0436" y2="27.5255"/>
 </g>
 <g partID="854795590">
  <line stroke-width="1.728" stroke-linecap="round" stroke="black" x2="26.0436" y1="41.9255" x1="57.7076" y2="41.9255"/>
 </g>
 <g partID="854796330">
  <line stroke-width="1.728" stroke-linecap="round" stroke="black" x2="23.8241" y1="63.5519" x1="27.5135" y2="63.5519"/>
 </g>
 <g partID="854796560">
  <line stroke-width="1.728" stroke-linecap="round" stroke="black" x2="23.8705" y1="63.5519" x1="23.8241" y2="44.0935"/>
 </g>
 <g partID="854798370">
  <line stroke-width="1.728" stroke-linecap="round" stroke="black" x2="40.3097" y1="31.104" x1="43.704" y2="28.2757"/>
 </g>
 <g partID="854798440">
  <line stroke-width="1.728" stroke-linecap="round" stroke="black" x2="47.0685" y1="31.104" x1="43.704" y2="28.345"/>
 </g>
 <g partID="854798510">
  <line stroke-width="1.728" stroke-linecap="round" stroke="black" x2="46.9076" y1="27.5255" x1="40.4436" y2="27.5255"/>
 </g>
 <g partID="854798580">
  <line stroke-width="1.728" stroke-linecap="round" stroke="black" x2="51.1097" y1="31.104" x1="54.504" y2="28.2757"/>
 </g>
 <g partID="854808320">
  <line stroke-width="1.728" stroke-linecap="round" stroke="black" x2="81.4238" y1="20.2633" x1="81.4238" y2="110.286"/>
 </g>
 <g partID="854808190">
  <line stroke-width="1.728" stroke-linecap="round" stroke="black" x2="81.4238" y1="20.3067" x1="76.4435" y2="20.2633"/>
 </g>
 <g partID="854808450">
  <line stroke-width="1.728" stroke-linecap="round" stroke="black" x2="76.3745" y1="110.286" x1="81.4238" y2="110.314"/>
 </g>
</svg>
