; NON-PLATED HOLES START AT T1
; THROUGH (PLATED) HOLES START AT T100
M48
INCH
T1C0.125984
T100C0.035000
T101C0.036111
T102C0.038000
%
T1
X010816Y019345
X000816Y019345
X000816Y000845
X010816Y000845
T100
X006816Y010345
X002816Y006345
X005316Y010345
X006816Y006345
X005316Y006345
X002816Y010345
T101
X010315Y009845
X001316Y007845
X010315Y006845
X010315Y005845
X001316Y003845
X001316Y009845
X001316Y004845
X001316Y010845
X001316Y005845
X001316Y008845
X010315Y008845
X010315Y003845
X010315Y007845
X010315Y004845
X010315Y010845
X001316Y006845
T102
X010316Y016345
X008316Y014345
X003316Y015345
X006816Y015345
X008316Y017345
X006816Y016345
X001316Y014345
X001316Y015345
X003316Y014345
X010316Y017345
X003316Y016345
X005316Y016345
X001316Y016345
X005316Y015345
X008316Y016345
X010316Y014345
X008316Y015345
X010316Y015345
T00
M30
