G04 MADE WITH FRITZING*
G04 WWW.FRITZING.ORG*
G04 DOUBLE SIDED*
G04 HOLES PLATED*
G04 CONTOUR ON CENTER OF CONTOUR VECTOR*
%ASAXBY*%
%FSLAX23Y23*%
%MOIN*%
%OFA0B0*%
%SFA1.0B1.0*%
%ADD10C,0.077778*%
%ADD11C,0.078000*%
%ADD12C,0.075000*%
%ADD13C,0.024000*%
%ADD14R,0.001000X0.001000*%
%LNCOPPER1*%
G90*
G70*
G54D10*
X132Y1085D03*
X132Y985D03*
X132Y885D03*
X132Y785D03*
X132Y685D03*
X132Y585D03*
X132Y485D03*
X132Y385D03*
X1032Y385D03*
X1032Y485D03*
X1032Y585D03*
X1032Y685D03*
X1032Y785D03*
X1032Y885D03*
X1032Y985D03*
X1032Y1085D03*
G54D11*
X682Y1635D03*
X682Y1535D03*
X532Y1635D03*
X532Y1535D03*
X832Y1735D03*
X832Y1635D03*
X832Y1535D03*
X832Y1435D03*
X332Y1635D03*
X332Y1535D03*
X332Y1435D03*
X132Y1635D03*
X132Y1535D03*
X132Y1435D03*
G54D12*
X332Y985D03*
X332Y585D03*
X532Y985D03*
X532Y585D03*
X682Y985D03*
X682Y585D03*
G54D11*
X1032Y1735D03*
X1032Y1635D03*
X1032Y1535D03*
X1032Y1435D03*
G54D13*
X330Y384D02*
X161Y384D01*
D02*
X331Y556D02*
X330Y384D01*
D02*
X1131Y1433D02*
X1062Y1434D01*
D02*
X1131Y384D02*
X1131Y1433D01*
D02*
X1061Y384D02*
X1131Y384D01*
D02*
X431Y1435D02*
X801Y1435D01*
D02*
X301Y1435D02*
X162Y1435D01*
D02*
X431Y1435D02*
X362Y1435D01*
D02*
X431Y585D02*
X431Y1435D01*
D02*
X431Y585D02*
X360Y585D01*
D02*
X32Y1534D02*
X32Y1185D01*
D02*
X32Y1185D02*
X330Y1185D01*
D02*
X101Y1534D02*
X32Y1534D01*
D02*
X330Y1185D02*
X331Y1013D01*
D02*
X653Y585D02*
X560Y585D01*
D02*
X503Y585D02*
X431Y585D01*
D02*
X807Y1718D02*
X707Y1651D01*
D02*
X651Y1635D02*
X562Y1635D01*
D02*
X301Y1635D02*
X162Y1635D01*
D02*
X782Y984D02*
X710Y984D01*
D02*
X1002Y585D02*
X782Y585D01*
D02*
X782Y585D02*
X782Y984D01*
D02*
X1001Y1535D02*
X862Y1535D01*
D02*
X1001Y1635D02*
X862Y1635D01*
D02*
X1001Y1735D02*
X862Y1735D01*
G54D14*
D02*
G04 End of Copper1*
M02*