G04 MADE WITH FRITZING*
G04 WWW.FRITZING.ORG*
G04 DOUBLE SIDED*
G04 HOLES PLATED*
G04 CONTOUR ON CENTER OF CONTOUR VECTOR*
%ASAXBY*%
%FSLAX23Y23*%
%MOIN*%
%OFA0B0*%
%SFA1.0B1.0*%
%ADD10C,0.077778*%
%ADD11C,0.078000*%
%ADD12C,0.075000*%
%ADD13C,0.024000*%
%ADD14R,0.001000X0.001000*%
%LNCOPPER0*%
G90*
G70*
G54D10*
X132Y1085D03*
X132Y985D03*
X132Y885D03*
X132Y785D03*
X132Y685D03*
X132Y585D03*
X132Y485D03*
X132Y385D03*
X1032Y385D03*
X1032Y485D03*
X1032Y585D03*
X1032Y685D03*
X1032Y785D03*
X1032Y885D03*
X1032Y985D03*
X1032Y1085D03*
G54D11*
X682Y1635D03*
X682Y1535D03*
X532Y1635D03*
X532Y1535D03*
X832Y1735D03*
X832Y1635D03*
X832Y1535D03*
X832Y1435D03*
X332Y1635D03*
X332Y1535D03*
X332Y1435D03*
X132Y1635D03*
X132Y1535D03*
X132Y1435D03*
G54D12*
X332Y985D03*
X332Y585D03*
X532Y985D03*
X532Y585D03*
X682Y985D03*
X682Y585D03*
G54D11*
X1032Y1735D03*
X1032Y1635D03*
X1032Y1535D03*
X1032Y1435D03*
G54D13*
X1131Y1634D02*
X1062Y1634D01*
D02*
X1131Y884D02*
X1131Y1634D01*
D02*
X1061Y884D02*
X1131Y884D01*
D02*
X930Y1534D02*
X1002Y1534D01*
D02*
X930Y786D02*
X930Y1534D01*
D02*
X1002Y785D02*
X930Y786D01*
D02*
X233Y1534D02*
X301Y1534D01*
D02*
X233Y1336D02*
X233Y1534D01*
D02*
X32Y1336D02*
X233Y1336D01*
D02*
X32Y484D02*
X32Y1336D01*
D02*
X102Y485D02*
X32Y484D01*
D02*
X233Y984D02*
X303Y984D01*
D02*
X233Y585D02*
X233Y984D01*
D02*
X161Y585D02*
X233Y585D01*
D02*
X532Y1504D02*
X532Y1013D01*
D02*
X682Y1504D02*
X682Y1013D01*
D02*
X531Y685D02*
X532Y956D01*
D02*
X1002Y685D02*
X531Y685D01*
D02*
X431Y484D02*
X1002Y485D01*
D02*
X439Y1632D02*
X431Y484D01*
D02*
X362Y1634D02*
X439Y1632D01*
D02*
X439Y1632D02*
X502Y1634D01*
G54D14*
D02*
G04 End of Copper0*
M02*